<svg xmlns="http://www.w3.org/2000/svg" xmlns:xlink="http://www.w3.org/1999/xlink" width="860" zoomAndPan="magnify" viewBox="0 0 645 605.249981" height="807" preserveAspectRatio="xMidYMid meet" version="1.0"><defs><clipPath id="e0917ce46b"><path d="M 0.398438 68 L 606 68 L 606 604.5 L 0.398438 604.5 Z M 0.398438 68 " clip-rule="nonzero"/></clipPath><clipPath id="689486f9b6"><path d="M 79 29.550781 L 644.601562 29.550781 L 644.601562 569 L 79 569 Z M 79 29.550781 " clip-rule="nonzero"/></clipPath></defs><g clip-path="url(#e0917ce46b)"><path fill="#c6e77b" d="M 0.777344 149.261719 C 0.71875 148.894531 0.695312 148.523438 0.710938 148.152344 C 0.726562 147.777344 0.777344 147.410156 0.863281 147.046875 C 0.949219 146.6875 1.070312 146.335938 1.226562 145.996094 C 1.382812 145.65625 1.566406 145.335938 1.785156 145.035156 C 2.003906 144.734375 2.253906 144.457031 2.527344 144.203125 C 2.800781 143.949219 3.09375 143.722656 3.414062 143.527344 C 3.730469 143.332031 4.0625 143.171875 4.414062 143.042969 C 4.761719 142.914062 5.121094 142.816406 5.492188 142.757812 C 5.859375 142.699219 6.230469 142.679688 6.601562 142.691406 C 6.972656 142.707031 7.34375 142.757812 7.703125 142.84375 C 8.066406 142.929688 8.417969 143.050781 8.757812 143.207031 C 9.09375 143.363281 9.414062 143.550781 9.71875 143.769531 C 10.019531 143.988281 10.296875 144.234375 10.550781 144.507812 C 10.804688 144.78125 11.027344 145.078125 11.222656 145.394531 C 11.417969 145.714844 11.582031 146.046875 11.710938 146.398438 C 11.839844 146.746094 11.933594 147.105469 11.992188 147.472656 C 12.128906 148.304688 12.074219 149.121094 11.832031 149.925781 L 60.652344 168.84375 C 61.0625 168.027344 61.636719 167.34375 62.375 166.804688 C 63.113281 166.261719 63.933594 165.917969 64.835938 165.769531 C 65.59375 165.644531 66.34375 165.675781 67.089844 165.859375 C 67.835938 166.042969 68.515625 166.363281 69.128906 166.824219 L 123.511719 120.667969 C 123.273438 120.324219 123.074219 119.957031 122.914062 119.566406 C 122.753906 119.179688 122.640625 118.777344 122.574219 118.363281 C 122.503906 117.953125 122.480469 117.535156 122.503906 117.117188 C 122.527344 116.699219 122.59375 116.285156 122.707031 115.882812 C 122.824219 115.480469 122.980469 115.09375 123.179688 114.722656 C 123.378906 114.355469 123.617188 114.011719 123.894531 113.695312 C 124.171875 113.382812 124.476562 113.097656 124.816406 112.851562 C 125.15625 112.605469 125.515625 112.394531 125.902344 112.230469 C 126.285156 112.0625 126.683594 111.9375 127.097656 111.859375 C 127.507812 111.78125 127.925781 111.746094 128.34375 111.761719 C 128.761719 111.773438 129.175781 111.832031 129.582031 111.9375 C 129.988281 112.042969 130.378906 112.191406 130.75 112.382812 C 131.125 112.574219 131.472656 112.804688 131.792969 113.074219 C 132.117188 113.34375 132.40625 113.644531 132.660156 113.976562 C 132.914062 114.308594 133.132812 114.664062 133.308594 115.046875 C 133.484375 115.425781 133.617188 115.820312 133.703125 116.230469 L 257.957031 101.640625 C 257.945312 100.96875 258.046875 100.320312 258.261719 99.683594 C 258.476562 99.050781 258.796875 98.472656 259.21875 97.953125 C 259.636719 97.429688 260.136719 96.996094 260.707031 96.652344 C 261.28125 96.304688 261.898438 96.070312 262.554688 95.941406 C 263.210938 95.8125 263.871094 95.800781 264.53125 95.90625 C 265.195312 96.011719 265.816406 96.226562 266.402344 96.550781 C 266.988281 96.875 267.5 97.289062 267.941406 97.796875 C 268.378906 98.300781 268.71875 98.867188 268.957031 99.492188 L 356.460938 75.261719 L 356.460938 75.15625 C 356.421875 74.917969 356.398438 74.679688 356.390625 74.441406 C 356.386719 74.203125 356.394531 73.964844 356.417969 73.726562 C 356.441406 73.488281 356.476562 73.253906 356.53125 73.019531 C 356.582031 72.785156 356.652344 72.558594 356.734375 72.332031 C 356.816406 72.109375 356.910156 71.890625 357.019531 71.679688 C 357.132812 71.464844 357.253906 71.261719 357.390625 71.066406 C 357.523438 70.867188 357.671875 70.679688 357.832031 70.503906 C 357.992188 70.324219 358.160156 70.15625 358.34375 70 C 358.523438 69.84375 358.714844 69.699219 358.914062 69.566406 C 359.113281 69.433594 359.316406 69.316406 359.53125 69.210938 C 359.746094 69.105469 359.964844 69.011719 360.191406 68.933594 C 360.417969 68.855469 360.648438 68.792969 360.882812 68.742188 C 361.117188 68.691406 361.351562 68.660156 361.589844 68.640625 C 361.828125 68.621094 362.066406 68.617188 362.304688 68.628906 C 362.546875 68.640625 362.78125 68.664062 363.019531 68.707031 C 363.253906 68.75 363.484375 68.804688 363.714844 68.875 C 363.941406 68.945312 364.164062 69.03125 364.382812 69.128906 C 364.601562 69.230469 364.808594 69.339844 365.015625 69.46875 C 365.21875 69.59375 365.410156 69.730469 365.597656 69.882812 C 365.78125 70.03125 365.957031 70.195312 366.125 70.367188 C 366.289062 70.539062 366.441406 70.722656 366.585938 70.914062 C 366.726562 71.105469 366.855469 71.304688 366.972656 71.515625 C 367.089844 71.722656 367.191406 71.9375 367.28125 72.160156 C 367.371094 72.382812 367.445312 72.609375 367.507812 72.839844 C 367.566406 73.070312 367.613281 73.304688 367.644531 73.542969 C 367.675781 73.777344 367.691406 74.015625 367.691406 74.257812 C 367.691406 74.496094 367.679688 74.734375 367.648438 74.96875 C 367.621094 75.207031 367.574219 75.441406 367.515625 75.675781 C 367.457031 75.90625 367.382812 76.132812 367.296875 76.355469 C 367.207031 76.578125 367.105469 76.792969 366.988281 77.003906 C 366.875 77.210938 366.746094 77.414062 366.605469 77.605469 C 366.464844 77.796875 366.3125 77.980469 366.148438 78.15625 C 365.984375 78.328125 365.808594 78.492188 365.625 78.644531 C 365.4375 78.796875 365.246094 78.933594 365.042969 79.0625 C 364.839844 79.1875 364.628906 79.300781 364.414062 79.402344 C 364.195312 79.503906 363.972656 79.589844 363.746094 79.660156 C 363.519531 79.734375 363.285156 79.789062 363.050781 79.832031 C 362.816406 79.875 362.578125 79.902344 362.339844 79.917969 C 362.101562 79.929688 361.863281 79.925781 361.625 79.910156 C 361.386719 79.890625 361.148438 79.859375 360.914062 79.8125 C 360.679688 79.765625 360.453125 79.703125 360.226562 79.625 C 360 79.546875 359.777344 79.457031 359.5625 79.351562 C 359.347656 79.246094 359.140625 79.128906 358.941406 79 C 358.742188 78.867188 358.550781 78.722656 358.367188 78.570312 C 358.1875 78.414062 358.015625 78.246094 357.855469 78.070312 C 357.695312 77.894531 357.546875 77.707031 357.410156 77.511719 C 357.273438 77.3125 357.148438 77.109375 357.035156 76.898438 C 356.925781 76.6875 356.828125 76.46875 356.746094 76.246094 L 269.242188 100.476562 L 269.242188 100.585938 C 269.34375 101.214844 269.34375 101.84375 269.234375 102.46875 C 269.125 103.097656 268.914062 103.691406 268.605469 104.25 C 268.296875 104.808594 267.90625 105.300781 267.429688 105.722656 C 266.957031 106.148438 266.421875 106.484375 265.835938 106.730469 C 265.246094 106.976562 264.636719 107.121094 264 107.160156 C 263.363281 107.199219 262.738281 107.132812 262.121094 106.960938 C 261.507812 106.789062 260.941406 106.523438 260.414062 106.160156 C 259.890625 105.796875 259.441406 105.355469 259.066406 104.839844 L 182.6875 150.996094 C 182.925781 151.503906 183.09375 152.035156 183.1875 152.589844 C 183.269531 153.085938 183.285156 153.585938 183.234375 154.085938 C 183.179688 154.585938 183.066406 155.070312 182.882812 155.542969 C 182.703125 156.011719 182.464844 156.449219 182.167969 156.855469 C 181.871094 157.261719 181.523438 157.621094 181.132812 157.933594 C 180.738281 158.25 180.308594 158.507812 179.847656 158.707031 C 179.386719 158.90625 178.90625 159.042969 178.410156 159.117188 C 177.910156 159.1875 177.410156 159.195312 176.910156 159.132812 C 176.410156 159.074219 175.929688 158.949219 175.460938 158.757812 L 123.816406 259.511719 C 124.179688 259.75 124.511719 260.023438 124.8125 260.332031 C 125.113281 260.644531 125.375 260.988281 125.597656 261.359375 C 125.820312 261.730469 125.996094 262.121094 126.128906 262.53125 C 126.261719 262.945312 126.347656 263.363281 126.386719 263.796875 C 126.421875 264.226562 126.410156 264.65625 126.347656 265.085938 C 126.289062 265.515625 126.179688 265.929688 126.023438 266.332031 C 125.867188 266.738281 125.667969 267.117188 125.425781 267.476562 C 125.183594 267.835938 124.902344 268.160156 124.585938 268.453125 L 191.808594 357.585938 C 192.449219 357.175781 193.148438 356.914062 193.898438 356.796875 C 194.261719 356.742188 194.625 356.71875 194.988281 356.730469 C 195.355469 356.746094 195.714844 356.792969 196.070312 356.875 C 196.425781 356.957031 196.773438 357.074219 197.105469 357.222656 C 197.441406 357.371094 197.757812 357.550781 198.054688 357.761719 C 198.355469 357.96875 198.632812 358.207031 198.886719 358.46875 C 199.136719 358.734375 199.363281 359.019531 199.5625 359.324219 C 199.761719 359.632812 199.929688 359.953125 200.066406 360.292969 C 200.203125 360.632812 200.304688 360.980469 200.375 361.339844 L 282.976562 353.238281 C 282.976562 353.007812 282.988281 352.773438 283.015625 352.542969 C 283.042969 352.308594 283.082031 352.082031 283.136719 351.855469 C 283.195312 351.628906 283.261719 351.40625 283.347656 351.1875 C 283.429688 350.96875 283.523438 350.753906 283.632812 350.550781 C 283.742188 350.34375 283.863281 350.144531 284 349.953125 C 284.132812 349.761719 284.277344 349.578125 284.433594 349.40625 C 284.589844 349.230469 284.753906 349.070312 284.933594 348.914062 C 285.109375 348.761719 285.292969 348.621094 285.488281 348.492188 C 285.679688 348.363281 285.882812 348.242188 286.089844 348.136719 C 286.300781 348.035156 286.511719 347.941406 286.734375 347.863281 C 286.953125 347.785156 287.175781 347.71875 287.402344 347.667969 C 287.632812 347.617188 287.863281 347.578125 288.09375 347.558594 C 288.328125 347.535156 288.558594 347.527344 288.792969 347.53125 C 289.027344 347.539062 289.257812 347.558594 289.488281 347.59375 C 289.71875 347.628906 289.949219 347.675781 290.171875 347.738281 C 290.398438 347.800781 290.617188 347.878906 290.832031 347.96875 C 291.046875 348.058594 291.257812 348.164062 291.460938 348.277344 C 291.664062 348.394531 291.855469 348.523438 292.042969 348.660156 C 292.230469 348.800781 292.410156 348.953125 292.578125 349.113281 C 292.746094 349.277344 292.902344 349.449219 293.050781 349.628906 C 293.195312 349.8125 293.332031 350 293.457031 350.199219 C 293.578125 350.398438 293.691406 350.601562 293.789062 350.8125 C 293.886719 351.023438 293.972656 351.242188 294.042969 351.464844 C 294.113281 351.6875 294.171875 351.914062 294.214844 352.140625 C 294.257812 352.371094 294.289062 352.601562 294.304688 352.835938 C 294.316406 353.066406 294.320312 353.300781 294.304688 353.535156 C 294.289062 353.765625 294.261719 354 294.21875 354.226562 C 294.179688 354.457031 294.121094 354.683594 294.050781 354.90625 C 293.980469 355.128906 293.898438 355.347656 293.800781 355.558594 C 293.703125 355.769531 293.59375 355.976562 293.472656 356.175781 C 293.347656 356.375 293.214844 356.5625 293.066406 356.746094 C 292.921875 356.929688 292.765625 357.101562 292.597656 357.261719 L 342.796875 419.550781 C 342.988281 419.421875 343.1875 419.300781 343.394531 419.195312 C 343.601562 419.089844 343.8125 419 344.03125 418.917969 C 344.25 418.839844 344.46875 418.773438 344.695312 418.722656 C 344.921875 418.671875 345.148438 418.632812 345.382812 418.609375 C 345.613281 418.585938 345.84375 418.574219 346.074219 418.578125 C 346.304688 418.585938 346.539062 418.605469 346.765625 418.636719 C 346.996094 418.671875 347.222656 418.71875 347.445312 418.777344 C 347.671875 418.839844 347.890625 418.914062 348.101562 419.003906 C 348.316406 419.089844 348.527344 419.191406 348.726562 419.304688 C 348.929688 419.417969 349.125 419.546875 349.3125 419.683594 C 349.496094 419.820312 349.675781 419.96875 349.84375 420.128906 C 350.011719 420.289062 350.167969 420.460938 350.316406 420.640625 C 350.460938 420.816406 350.597656 421.003906 350.722656 421.203125 C 350.84375 421.398438 350.957031 421.601562 351.054688 421.808594 C 351.15625 422.019531 351.238281 422.234375 351.3125 422.457031 C 351.382812 422.675781 351.441406 422.898438 351.488281 423.128906 L 456.535156 411.519531 C 456.519531 411.160156 456.539062 410.800781 456.59375 410.441406 C 456.648438 410.085938 456.734375 409.734375 456.855469 409.394531 C 456.976562 409.054688 457.128906 408.726562 457.3125 408.414062 C 457.496094 408.101562 457.707031 407.808594 457.945312 407.539062 C 458.1875 407.265625 458.449219 407.019531 458.734375 406.800781 C 459.019531 406.578125 459.324219 406.386719 459.648438 406.222656 C 459.972656 406.058594 460.308594 405.925781 460.65625 405.828125 C 461.003906 405.726562 461.355469 405.664062 461.71875 405.628906 C 462.078125 405.597656 462.4375 405.601562 462.796875 405.636719 C 463.15625 405.675781 463.511719 405.746094 463.859375 405.851562 C 464.203125 405.953125 464.539062 406.089844 464.859375 406.257812 C 465.179688 406.425781 465.480469 406.625 465.761719 406.851562 C 466.046875 407.074219 466.304688 407.328125 466.539062 407.601562 C 466.773438 407.875 466.980469 408.171875 467.160156 408.484375 C 467.339844 408.800781 467.488281 409.128906 467.601562 409.472656 C 467.71875 409.816406 467.800781 410.164062 467.851562 410.523438 C 467.898438 410.882812 467.914062 411.242188 467.894531 411.605469 C 467.875 411.964844 467.820312 412.320312 467.734375 412.671875 C 467.644531 413.023438 467.527344 413.363281 467.375 413.691406 C 467.222656 414.019531 467.039062 414.332031 466.828125 414.625 C 466.617188 414.917969 466.378906 415.1875 466.113281 415.4375 C 465.851562 415.683594 465.566406 415.90625 465.261719 416.097656 C 464.957031 416.292969 464.632812 416.457031 464.296875 416.589844 C 463.960938 416.71875 463.613281 416.820312 463.257812 416.886719 L 470.839844 495.949219 C 471.445312 495.941406 472.03125 496.03125 472.605469 496.214844 C 473.179688 496.394531 473.714844 496.664062 474.203125 497.015625 C 474.691406 497.367188 475.113281 497.785156 475.46875 498.273438 C 475.824219 498.761719 476.097656 499.289062 476.28125 499.863281 C 476.46875 500.4375 476.5625 501.023438 476.558594 501.628906 C 476.558594 502.230469 476.464844 502.816406 476.277344 503.390625 C 476.085938 503.964844 475.8125 504.492188 475.457031 504.976562 C 475.097656 505.464844 474.675781 505.878906 474.183594 506.230469 L 508.164062 563.761719 C 508.652344 563.53125 509.167969 563.371094 509.699219 563.277344 C 510.226562 563.199219 510.75 563.191406 511.277344 563.257812 C 511.800781 563.320312 512.308594 563.457031 512.796875 563.664062 C 513.285156 563.871094 513.734375 564.140625 514.148438 564.472656 C 514.5625 564.804688 514.921875 565.1875 515.226562 565.621094 L 594.324219 520.089844 C 594.101562 519.625 593.949219 519.136719 593.878906 518.625 C 593.816406 518.253906 593.792969 517.882812 593.808594 517.511719 C 593.820312 517.136719 593.871094 516.765625 593.957031 516.402344 C 594.042969 516.039062 594.160156 515.6875 594.316406 515.347656 C 594.472656 515.007812 594.660156 514.683594 594.878906 514.382812 C 595.097656 514.078125 595.34375 513.800781 595.617188 513.546875 C 595.890625 513.289062 596.1875 513.066406 596.503906 512.867188 C 596.824219 512.671875 597.15625 512.507812 597.507812 512.378906 C 597.859375 512.25 598.21875 512.152344 598.585938 512.09375 C 598.957031 512.035156 599.328125 512.011719 599.703125 512.027344 C 600.074219 512.039062 600.445312 512.089844 600.808594 512.175781 C 601.171875 512.261719 601.523438 512.382812 601.863281 512.539062 C 602.203125 512.695312 602.523438 512.882812 602.828125 513.105469 C 603.128906 513.324219 603.40625 513.570312 603.664062 513.84375 C 603.917969 514.117188 604.140625 514.414062 604.335938 514.734375 C 604.53125 515.050781 604.695312 515.386719 604.824219 515.738281 C 604.953125 516.089844 605.046875 516.449219 605.105469 516.816406 C 605.164062 517.1875 605.1875 517.558594 605.171875 517.933594 C 605.15625 518.304688 605.105469 518.675781 605.019531 519.039062 C 604.933594 519.402344 604.808594 519.753906 604.652344 520.09375 C 604.496094 520.433594 604.308594 520.753906 604.089844 521.054688 C 603.867188 521.359375 603.621094 521.636719 603.347656 521.890625 C 603.070312 522.144531 602.773438 522.367188 602.457031 522.5625 C 602.136719 522.757812 601.800781 522.917969 601.449219 523.046875 C 601.097656 523.175781 600.738281 523.269531 600.371094 523.328125 C 600.046875 523.355469 599.726562 523.355469 599.402344 523.328125 L 592.25 593.074219 C 592.589844 593.136719 592.917969 593.234375 593.238281 593.359375 C 593.558594 593.488281 593.863281 593.640625 594.15625 593.824219 C 594.449219 594.003906 594.722656 594.210938 594.976562 594.445312 C 595.230469 594.675781 595.464844 594.929688 595.671875 595.203125 C 595.878906 595.476562 596.0625 595.765625 596.21875 596.074219 C 596.375 596.382812 596.5 596.699219 596.597656 597.03125 C 596.695312 597.359375 596.761719 597.695312 596.796875 598.039062 C 596.835938 598.382812 596.839844 598.722656 596.8125 599.066406 C 596.785156 599.410156 596.730469 599.75 596.640625 600.082031 C 596.554688 600.414062 596.4375 600.738281 596.289062 601.046875 C 596.144531 601.359375 595.96875 601.65625 595.769531 601.9375 C 595.570312 602.214844 595.34375 602.476562 595.097656 602.714844 C 594.851562 602.953125 594.582031 603.167969 594.296875 603.359375 C 594.007812 603.550781 593.707031 603.710938 593.390625 603.847656 C 593.074219 603.984375 592.746094 604.089844 592.410156 604.164062 C 592.074219 604.242188 591.734375 604.285156 591.390625 604.300781 C 591.046875 604.3125 590.707031 604.296875 590.363281 604.25 C 590.023438 604.199219 589.691406 604.121094 589.363281 604.011719 C 589.035156 603.902344 588.722656 603.765625 588.421875 603.597656 C 588.121094 603.433594 587.835938 603.242188 587.570312 603.023438 C 587.304688 602.804688 587.058594 602.5625 586.835938 602.300781 C 586.613281 602.039062 586.417969 601.757812 586.246094 601.460938 C 586.074219 601.160156 585.929688 600.851562 585.816406 600.523438 C 585.699219 600.199219 585.617188 599.867188 585.5625 599.527344 C 585.4375 598.726562 585.480469 597.933594 585.6875 597.148438 L 515.761719 571.328125 C 515.527344 571.824219 515.226562 572.277344 514.859375 572.683594 C 514.492188 573.09375 514.074219 573.441406 513.605469 573.730469 C 513.136719 574.019531 512.636719 574.234375 512.105469 574.375 C 511.574219 574.515625 511.035156 574.582031 510.484375 574.566406 C 509.933594 574.550781 509.398438 574.457031 508.875 574.285156 C 508.351562 574.113281 507.867188 573.875 507.414062 573.558594 C 506.960938 573.246094 506.5625 572.875 506.21875 572.445312 C 505.875 572.019531 505.597656 571.550781 505.390625 571.039062 L 439.132812 591.535156 L 439.132812 591.820312 C 439.171875 592.066406 439.191406 592.3125 439.195312 592.558594 C 439.199219 592.804688 439.1875 593.054688 439.160156 593.296875 C 439.132812 593.542969 439.089844 593.789062 439.03125 594.027344 C 438.96875 594.269531 438.894531 594.503906 438.804688 594.734375 C 438.714844 594.964844 438.609375 595.1875 438.488281 595.402344 C 438.371094 595.621094 438.238281 595.828125 438.089844 596.027344 C 437.945312 596.226562 437.785156 596.414062 437.613281 596.59375 C 437.441406 596.773438 437.257812 596.9375 437.066406 597.09375 C 436.871094 597.246094 436.667969 597.390625 436.457031 597.515625 C 436.246094 597.644531 436.027344 597.757812 435.800781 597.855469 C 435.574219 597.957031 435.339844 598.039062 435.101562 598.109375 C 434.863281 598.179688 434.625 598.230469 434.378906 598.269531 C 434.132812 598.304688 433.886719 598.328125 433.640625 598.332031 C 433.394531 598.335938 433.148438 598.324219 432.902344 598.296875 C 432.65625 598.269531 432.410156 598.226562 432.171875 598.167969 C 431.929688 598.109375 431.695312 598.035156 431.464844 597.945312 C 431.234375 597.855469 431.011719 597.75 430.792969 597.628906 C 430.578125 597.511719 430.367188 597.378906 430.167969 597.230469 C 429.96875 597.085938 429.78125 596.925781 429.601562 596.753906 C 429.425781 596.582031 429.257812 596.398438 429.101562 596.207031 C 428.949219 596.015625 428.808594 595.8125 428.679688 595.601562 C 428.550781 595.386719 428.4375 595.167969 428.335938 594.941406 C 428.238281 594.714844 428.152344 594.484375 428.085938 594.246094 C 428.015625 594.007812 427.960938 593.765625 427.925781 593.523438 C 427.886719 593.277344 427.863281 593.03125 427.859375 592.785156 C 427.855469 592.539062 427.867188 592.289062 427.890625 592.042969 C 427.917969 591.796875 427.960938 591.554688 428.019531 591.316406 C 428.082031 591.074219 428.15625 590.839844 428.242188 590.609375 C 428.332031 590.378906 428.4375 590.152344 428.558594 589.9375 C 428.675781 589.71875 428.808594 589.511719 428.957031 589.3125 C 429.101562 589.113281 429.261719 588.921875 429.429688 588.746094 C 429.601562 588.566406 429.785156 588.398438 429.976562 588.242188 L 374.898438 505.03125 C 374.335938 505.34375 373.738281 505.550781 373.109375 505.660156 C 372.546875 505.738281 371.988281 505.738281 371.425781 505.660156 L 362.234375 544.769531 C 362.671875 544.914062 363.085938 545.109375 363.476562 545.355469 C 363.867188 545.601562 364.21875 545.886719 364.539062 546.21875 C 364.859375 546.550781 365.136719 546.914062 365.367188 547.3125 C 365.597656 547.710938 365.777344 548.132812 365.90625 548.574219 C 366.035156 549.015625 366.109375 549.46875 366.128906 549.929688 C 366.148438 550.386719 366.113281 550.84375 366.023438 551.296875 C 365.929688 551.746094 365.785156 552.179688 365.589844 552.597656 C 365.394531 553.011719 365.148438 553.398438 364.859375 553.757812 C 364.566406 554.113281 364.238281 554.433594 363.871094 554.710938 C 363.503906 554.988281 363.109375 555.214844 362.683594 555.398438 C 362.261719 555.578125 361.820312 555.707031 361.367188 555.78125 C 360.914062 555.855469 360.457031 555.875 359.996094 555.835938 C 359.539062 555.800781 359.089844 555.710938 358.652344 555.5625 C 358.214844 555.417969 357.804688 555.222656 357.414062 554.976562 C 357.023438 554.730469 356.667969 554.441406 356.351562 554.113281 C 356.03125 553.78125 355.753906 553.414062 355.523438 553.015625 C 355.292969 552.617188 355.113281 552.195312 354.988281 551.753906 C 354.859375 551.3125 354.785156 550.859375 354.765625 550.402344 C 354.746094 549.941406 354.785156 549.484375 354.875 549.035156 C 354.96875 548.582031 355.113281 548.148438 355.308594 547.734375 C 355.507812 547.316406 355.75 546.929688 356.042969 546.574219 C 356.332031 546.214844 356.660156 545.898438 357.03125 545.621094 C 357.398438 545.347656 357.792969 545.117188 358.21875 544.9375 C 358.640625 544.757812 359.082031 544.628906 359.535156 544.554688 C 360.101562 544.472656 360.667969 544.472656 361.234375 544.554688 L 370.425781 505.425781 C 369.933594 505.265625 369.46875 505.039062 369.039062 504.75 C 368.609375 504.457031 368.222656 504.113281 367.886719 503.71875 C 367.550781 503.324219 367.277344 502.890625 367.058594 502.417969 C 366.84375 501.945312 366.695312 501.449219 366.617188 500.9375 L 366.617188 500.277344 L 263.054688 495.214844 C 263.007812 495.5625 262.925781 495.898438 262.816406 496.230469 C 262.703125 496.5625 262.566406 496.882812 262.394531 497.1875 C 262.226562 497.492188 262.027344 497.78125 261.804688 498.050781 C 261.582031 498.320312 261.335938 498.566406 261.070312 498.792969 C 260.800781 499.015625 260.515625 499.214844 260.210938 499.386719 C 259.90625 499.558594 259.585938 499.699219 259.253906 499.8125 C 258.925781 499.925781 258.585938 500.007812 258.238281 500.054688 C 257.894531 500.105469 257.546875 500.125 257.195312 500.109375 C 256.847656 500.097656 256.5 500.050781 256.160156 499.972656 C 255.820312 499.894531 255.488281 499.789062 255.167969 499.648438 C 254.847656 499.511719 254.539062 499.34375 254.25 499.148438 C 253.960938 498.953125 253.691406 498.734375 253.441406 498.488281 C 253.191406 498.242188 252.964844 497.976562 252.765625 497.691406 C 252.5625 497.40625 252.390625 497.101562 252.246094 496.785156 C 252.101562 496.464844 251.988281 496.136719 251.902344 495.796875 C 251.820312 495.457031 251.765625 495.113281 251.746094 494.765625 C 251.726562 494.414062 251.734375 494.066406 251.78125 493.71875 C 251.824219 493.375 251.898438 493.035156 252.003906 492.699219 C 252.109375 492.367188 252.246094 492.046875 252.414062 491.738281 C 252.578125 491.429688 252.769531 491.140625 252.988281 490.867188 C 253.207031 490.59375 253.449219 490.34375 253.714844 490.117188 C 253.980469 489.886719 254.265625 489.6875 254.566406 489.511719 C 254.871094 489.335938 255.1875 489.1875 255.515625 489.070312 C 255.84375 488.953125 256.183594 488.867188 256.527344 488.8125 C 257.730469 488.617188 258.875 488.796875 259.960938 489.347656 L 292.152344 436.933594 C 290.949219 436.027344 290.214844 434.835938 289.953125 433.355469 L 289.953125 433.160156 L 212.085938 435.554688 C 212.066406 435.902344 212.011719 436.242188 211.925781 436.578125 C 211.84375 436.914062 211.730469 437.238281 211.585938 437.550781 C 211.441406 437.867188 211.269531 438.167969 211.070312 438.449219 C 210.871094 438.734375 210.648438 438.996094 210.402344 439.238281 C 210.15625 439.480469 209.890625 439.699219 209.601562 439.890625 C 209.316406 440.085938 209.015625 440.25 208.699219 440.390625 C 208.378906 440.527344 208.054688 440.636719 207.71875 440.714844 C 207.378906 440.792969 207.039062 440.839844 206.691406 440.855469 C 206.347656 440.875 206.003906 440.859375 205.660156 440.8125 C 205.316406 440.765625 204.980469 440.6875 204.652344 440.578125 C 204.324219 440.46875 204.007812 440.332031 203.707031 440.167969 C 203.402344 440 203.117188 439.808594 202.847656 439.589844 C 202.582031 439.371094 202.335938 439.128906 202.109375 438.867188 C 201.886719 438.601562 201.6875 438.320312 201.515625 438.019531 C 201.34375 437.71875 201.199219 437.40625 201.085938 437.082031 C 200.96875 436.753906 200.882812 436.421875 200.832031 436.078125 C 200.777344 435.738281 200.753906 435.394531 200.761719 435.046875 C 200.773438 434.703125 200.8125 434.359375 200.882812 434.023438 C 200.957031 433.683594 201.058594 433.355469 201.1875 433.035156 C 201.320312 432.714844 201.480469 432.410156 201.667969 432.117188 C 201.855469 431.828125 202.066406 431.558594 202.304688 431.304688 C 202.542969 431.054688 202.800781 430.824219 203.082031 430.621094 C 203.359375 430.417969 203.65625 430.238281 203.964844 430.089844 C 204.277344 429.9375 204.601562 429.816406 204.933594 429.726562 L 195.117188 368.261719 C 193.746094 368.359375 192.503906 368 191.394531 367.1875 L 134.957031 431.871094 C 135.777344 432.722656 136.277344 433.726562 136.457031 434.894531 C 136.519531 435.261719 136.542969 435.632812 136.53125 436.003906 C 136.519531 436.378906 136.46875 436.746094 136.386719 437.109375 C 136.300781 437.472656 136.179688 437.824219 136.027344 438.164062 C 135.871094 438.503906 135.6875 438.824219 135.46875 439.128906 C 135.253906 439.429688 135.007812 439.710938 134.734375 439.964844 C 134.464844 440.222656 134.167969 440.445312 133.851562 440.644531 C 133.535156 440.839844 133.203125 441.003906 132.855469 441.136719 C 132.503906 441.269531 132.148438 441.363281 131.777344 441.425781 C 131.410156 441.488281 131.039062 441.511719 130.667969 441.5 C 130.292969 441.488281 129.925781 441.441406 129.5625 441.355469 C 129.199219 441.273438 128.847656 441.152344 128.507812 441 C 128.167969 440.847656 127.847656 440.660156 127.542969 440.445312 C 127.238281 440.226562 126.960938 439.984375 126.703125 439.710938 C 126.449219 439.441406 126.222656 439.144531 126.023438 438.828125 C 125.828125 438.511719 125.660156 438.179688 125.53125 437.832031 C 125.398438 437.484375 125.300781 437.125 125.238281 436.757812 C 125.175781 436.390625 125.152344 436.019531 125.164062 435.644531 C 125.175781 435.273438 125.222656 434.90625 125.304688 434.542969 C 125.386719 434.179688 125.507812 433.828125 125.660156 433.484375 C 125.8125 433.144531 125.996094 432.824219 126.210938 432.519531 C 126.429688 432.214844 126.671875 431.9375 126.945312 431.679688 C 127.214844 431.425781 127.507812 431.195312 127.824219 431 C 128.140625 430.800781 128.472656 430.636719 128.820312 430.503906 C 129.171875 430.371094 129.527344 430.273438 129.894531 430.210938 L 124.800781 367.941406 C 124.445312 367.9375 124.097656 367.898438 123.753906 367.832031 C 123.40625 367.761719 123.070312 367.664062 122.746094 367.53125 C 122.417969 367.402344 122.105469 367.242188 121.808594 367.050781 C 121.511719 366.863281 121.234375 366.648438 120.976562 366.40625 C 120.71875 366.167969 120.488281 365.902344 120.28125 365.621094 C 120.070312 365.335938 119.890625 365.035156 119.738281 364.714844 C 119.589844 364.398438 119.46875 364.070312 119.375 363.730469 C 119.285156 363.390625 119.226562 363.042969 119.199219 362.691406 C 119.175781 362.339844 119.179688 361.992188 119.21875 361.640625 C 119.257812 361.289062 119.332031 360.949219 119.433594 360.609375 C 119.535156 360.273438 119.671875 359.949219 119.832031 359.636719 C 119.996094 359.324219 120.1875 359.03125 120.40625 358.753906 C 120.625 358.480469 120.867188 358.226562 121.132812 357.996094 C 121.398438 357.761719 121.683594 357.558594 121.988281 357.378906 C 122.289062 357.203125 122.609375 357.054688 122.941406 356.933594 C 123.269531 356.816406 123.609375 356.730469 123.957031 356.671875 C 124.007812 356.664062 124.054688 356.664062 124.101562 356.671875 L 120.523438 270.136719 C 119.871094 270.09375 119.242188 269.945312 118.636719 269.6875 C 118.035156 269.429688 117.492188 269.082031 117.011719 268.636719 C 116.527344 268.191406 116.136719 267.679688 115.828125 267.097656 C 115.523438 266.519531 115.324219 265.902344 115.230469 265.253906 C 115.09375 264.378906 115.160156 263.523438 115.429688 262.679688 L 53.195312 236.820312 C 52.992188 237.207031 52.746094 237.5625 52.457031 237.890625 C 52.171875 238.222656 51.851562 238.511719 51.496094 238.769531 C 51.144531 239.023438 50.765625 239.234375 50.363281 239.402344 C 49.957031 239.570312 49.542969 239.691406 49.113281 239.761719 C 48.679688 239.832031 48.246094 239.855469 47.8125 239.828125 C 47.375 239.796875 46.949219 239.71875 46.53125 239.59375 C 46.113281 239.464844 45.71875 239.292969 45.339844 239.074219 C 44.960938 238.855469 44.613281 238.597656 44.296875 238.296875 C 43.980469 237.996094 43.699219 237.664062 43.457031 237.300781 C 43.21875 236.9375 43.019531 236.550781 42.867188 236.144531 C 42.714844 235.734375 42.613281 235.3125 42.558594 234.878906 C 42.503906 234.445312 42.5 234.011719 42.542969 233.578125 C 42.589844 233.144531 42.683594 232.722656 42.828125 232.308594 C 42.972656 231.898438 43.160156 231.507812 43.394531 231.136719 C 43.625 230.769531 43.898438 230.429688 44.210938 230.125 C 44.519531 229.820312 44.863281 229.554688 45.238281 229.328125 L 8.46875 153.679688 C 8.109375 153.8125 7.738281 153.90625 7.359375 153.964844 C 6.988281 154.03125 6.617188 154.058594 6.238281 154.046875 C 5.863281 154.035156 5.492188 153.988281 5.125 153.90625 C 4.757812 153.820312 4.402344 153.703125 4.0625 153.546875 C 3.71875 153.394531 3.394531 153.207031 3.085938 152.988281 C 2.78125 152.769531 2.5 152.523438 2.242188 152.25 C 1.984375 151.972656 1.757812 151.675781 1.558594 151.355469 C 1.359375 151.039062 1.195312 150.699219 1.066406 150.347656 C 0.933594 149.996094 0.839844 149.632812 0.777344 149.261719 Z M 115.75 261.675781 C 116.160156 260.886719 116.726562 260.230469 117.449219 259.710938 L 68.253906 176.5 C 67.140625 177.03125 65.976562 177.179688 64.765625 176.945312 L 50.191406 228.808594 C 50.527344 228.933594 50.847656 229.089844 51.152344 229.277344 C 51.460938 229.460938 51.746094 229.675781 52.011719 229.917969 C 52.277344 230.160156 52.515625 230.421875 52.730469 230.710938 C 52.945312 230.996094 53.132812 231.300781 53.289062 231.625 C 53.445312 231.945312 53.570312 232.28125 53.664062 232.628906 C 53.753906 232.972656 53.816406 233.324219 53.839844 233.683594 C 53.867188 234.039062 53.859375 234.398438 53.816406 234.753906 C 53.773438 235.109375 53.695312 235.457031 53.585938 235.800781 Z M 190.699219 366.382812 C 189.875 365.53125 189.375 364.515625 189.195312 363.34375 C 189.1875 363.207031 189.1875 363.070312 189.195312 362.933594 L 130.609375 362.664062 C 130.554688 363.28125 130.398438 363.875 130.148438 364.441406 C 129.898438 365.011719 129.5625 365.523438 129.140625 365.980469 C 128.71875 366.4375 128.238281 366.816406 127.695312 367.113281 C 127.148438 367.410156 126.574219 367.617188 125.960938 367.726562 L 131.058594 429.976562 C 132.265625 429.996094 133.355469 430.359375 134.332031 431.066406 Z M 283.085938 354.257812 L 200.464844 362.414062 C 200.476562 363.429688 200.234375 364.375 199.730469 365.257812 L 291.203125 428.6875 C 292.089844 427.632812 293.210938 426.984375 294.566406 426.738281 L 288.628906 358.785156 C 287.976562 358.785156 287.34375 358.675781 286.726562 358.457031 C 286.113281 358.238281 285.554688 357.921875 285.046875 357.511719 C 284.542969 357.097656 284.121094 356.613281 283.785156 356.054688 C 283.449219 355.496094 283.214844 354.898438 283.085938 354.257812 Z M 301.21875 431.945312 C 301.324219 433.328125 300.960938 434.574219 300.125 435.679688 L 368.226562 495.949219 C 368.683594 495.511719 369.203125 495.167969 369.78125 494.910156 L 347.304688 429.78125 C 347.148438 429.820312 346.996094 429.847656 346.839844 429.871094 C 346.492188 429.925781 346.140625 429.949219 345.792969 429.9375 C 345.441406 429.929688 345.09375 429.886719 344.75 429.8125 C 344.40625 429.738281 344.074219 429.636719 343.75 429.5 C 343.425781 429.363281 343.117188 429.199219 342.824219 429.007812 C 342.53125 428.816406 342.257812 428.597656 342.003906 428.351562 C 341.75 428.109375 341.523438 427.847656 341.316406 427.558594 C 341.113281 427.273438 340.9375 426.972656 340.789062 426.65625 C 340.640625 426.335938 340.523438 426.007812 340.4375 425.667969 Z M 348.269531 429.441406 L 370.746094 494.554688 C 370.902344 494.515625 371.054688 494.484375 371.210938 494.464844 C 372.03125 494.335938 372.839844 494.382812 373.640625 494.605469 C 374.4375 494.824219 375.15625 495.203125 375.789062 495.734375 C 390.722656 481.050781 442.90625 429.78125 457.839844 415.027344 C 457.226562 414.300781 456.828125 413.472656 456.640625 412.539062 L 351.613281 424.148438 C 351.621094 424.703125 351.546875 425.246094 351.398438 425.78125 C 351.246094 426.316406 351.023438 426.820312 350.726562 427.289062 C 350.429688 427.757812 350.070312 428.175781 349.652344 428.542969 C 349.234375 428.910156 348.773438 429.207031 348.269531 429.441406 Z M 469.875 496.019531 L 462.167969 417.082031 C 460.777344 417.097656 459.546875 416.65625 458.484375 415.757812 C 443.550781 430.511719 391.527344 481.625 376.433594 496.464844 C 376.816406 496.9375 377.113281 497.457031 377.328125 498.023438 L 465.171875 500.902344 C 465.242188 500.292969 465.402344 499.710938 465.660156 499.15625 C 465.917969 498.601562 466.257812 498.101562 466.675781 497.652344 C 467.09375 497.207031 467.574219 496.839844 468.109375 496.546875 C 468.648438 496.253906 469.21875 496.054688 469.820312 495.949219 Z M 289.898438 431.980469 C 289.945312 431.105469 290.191406 430.289062 290.628906 429.53125 L 199.140625 366.097656 C 198.351562 367.015625 197.367188 367.609375 196.1875 367.886719 L 206.023438 429.351562 C 206.375 429.328125 206.722656 429.335938 207.070312 429.378906 C 207.421875 429.417969 207.761719 429.492188 208.097656 429.597656 C 208.429688 429.699219 208.753906 429.835938 209.0625 430 C 209.371094 430.164062 209.664062 430.351562 209.941406 430.570312 C 210.214844 430.789062 210.464844 431.03125 210.695312 431.296875 C 210.925781 431.558594 211.128906 431.84375 211.308594 432.144531 C 211.484375 432.449219 211.632812 432.765625 211.753906 433.09375 C 211.871094 433.425781 211.960938 433.761719 212.015625 434.109375 L 212.015625 434.324219 Z M 366.492188 499.273438 C 366.621094 498.324219 366.972656 497.46875 367.546875 496.699219 L 299.429688 436.449219 C 298.585938 437.25 297.589844 437.746094 296.441406 437.933594 C 295.238281 438.128906 294.09375 437.949219 293.007812 437.398438 L 260.640625 489.902344 C 261.222656 490.339844 261.703125 490.863281 262.082031 491.480469 C 262.460938 492.101562 262.714844 492.765625 262.839844 493.480469 C 262.859375 493.699219 262.859375 493.921875 262.839844 494.140625 Z M 430.765625 587.707031 C 431.324219 587.394531 431.921875 587.1875 432.550781 587.082031 C 433.425781 586.953125 434.285156 587.019531 435.128906 587.277344 L 468.265625 506.679688 C 467.46875 506.265625 466.804688 505.695312 466.28125 504.96875 C 465.753906 504.242188 465.421875 503.433594 465.277344 502.546875 L 465.277344 501.976562 L 377.757812 499.113281 L 377.757812 499.222656 C 377.839844 499.71875 377.855469 500.21875 377.804688 500.722656 C 377.75 501.222656 377.636719 501.710938 377.453125 502.179688 C 377.273438 502.652344 377.035156 503.09375 376.738281 503.5 C 376.441406 503.90625 376.09375 504.269531 375.703125 504.585938 Z M 515.675781 566.496094 C 515.890625 566.972656 516.039062 567.46875 516.121094 567.980469 C 516.242188 568.777344 516.199219 569.566406 515.996094 570.34375 L 585.917969 596.09375 C 586.316406 595.25 586.890625 594.546875 587.636719 593.988281 C 588.382812 593.425781 589.21875 593.074219 590.140625 592.929688 C 590.46875 592.894531 590.796875 592.894531 591.125 592.929688 L 598.277344 523.183594 C 597.554688 523.046875 596.882812 522.78125 596.261719 522.382812 C 595.644531 521.980469 595.121094 521.480469 594.699219 520.878906 Z M 473.308594 506.679688 C 472.816406 506.90625 472.304688 507.066406 471.769531 507.160156 C 470.902344 507.285156 470.050781 507.222656 469.214844 506.964844 L 436.074219 587.617188 C 437.296875 588.253906 438.171875 589.207031 438.703125 590.480469 L 504.980469 570.003906 L 504.980469 569.714844 C 504.898438 569.195312 504.886719 568.671875 504.953125 568.148438 C 505.015625 567.625 505.148438 567.121094 505.351562 566.636719 C 505.554688 566.148438 505.820312 565.699219 506.152344 565.289062 C 506.480469 564.875 506.859375 564.515625 507.285156 564.207031 Z M 291.792969 357.851562 C 291.140625 358.304688 290.425781 358.597656 289.648438 358.730469 L 295.585938 426.597656 C 296.214844 426.597656 296.824219 426.703125 297.417969 426.910156 C 298.011719 427.113281 298.554688 427.410156 299.050781 427.796875 C 299.546875 428.183594 299.964844 428.640625 300.308594 429.167969 C 300.652344 429.695312 300.902344 430.261719 301.058594 430.871094 L 340.273438 424.59375 C 340.226562 423.753906 340.359375 422.945312 340.671875 422.167969 C 340.984375 421.386719 341.449219 420.710938 342.0625 420.140625 Z M 123.691406 269.082031 C 123.046875 269.488281 122.351562 269.75 121.597656 269.867188 C 121.550781 269.859375 121.503906 269.859375 121.453125 269.867188 L 125.03125 356.386719 C 125.6875 356.414062 126.316406 356.550781 126.921875 356.796875 C 127.53125 357.039062 128.078125 357.382812 128.566406 357.816406 C 129.054688 358.25 129.457031 358.757812 129.769531 359.332031 C 130.085938 359.90625 130.292969 360.515625 130.398438 361.160156 L 130.398438 361.574219 L 188.964844 361.839844 C 189.09375 360.390625 189.691406 359.171875 190.753906 358.175781 Z M 174.480469 158.203125 C 173.867188 157.820312 173.347656 157.335938 172.917969 156.753906 C 172.492188 156.167969 172.191406 155.523438 172.011719 154.824219 L 71.398438 170.917969 C 71.464844 171.898438 71.289062 172.828125 70.875 173.71875 C 70.457031 174.605469 69.851562 175.335938 69.058594 175.910156 L 118.273438 259.136719 C 118.761719 258.898438 119.273438 258.738281 119.808594 258.65625 C 120.847656 258.480469 121.855469 258.59375 122.832031 258.996094 Z M 258.53125 103.894531 C 258.332031 103.472656 258.183594 103.039062 258.082031 102.585938 L 133.8125 117.179688 C 133.878906 118.335938 133.613281 119.410156 133.007812 120.398438 L 173.316406 149.816406 C 173.597656 149.5 173.910156 149.214844 174.253906 148.964844 C 174.597656 148.71875 174.964844 148.507812 175.355469 148.34375 C 175.742188 148.175781 176.148438 148.054688 176.566406 147.980469 C 176.984375 147.902344 177.402344 147.875 177.828125 147.894531 C 178.25 147.914062 178.667969 147.980469 179.078125 148.089844 C 179.488281 148.203125 179.878906 148.359375 180.253906 148.5625 C 180.625 148.761719 180.972656 149 181.292969 149.277344 C 181.613281 149.558594 181.898438 149.867188 182.152344 150.210938 Z M 69.96875 167.523438 C 70.621094 168.226562 71.066406 169.042969 71.308594 169.972656 L 171.921875 153.875 C 171.84375 152.6875 172.109375 151.585938 172.726562 150.566406 L 132.417969 121.148438 C 132.164062 121.441406 131.878906 121.699219 131.570312 121.933594 C 131.265625 122.164062 130.933594 122.363281 130.585938 122.527344 C 130.238281 122.695312 129.875 122.824219 129.5 122.914062 C 129.125 123.007812 128.746094 123.058594 128.359375 123.074219 C 127.976562 123.085938 127.589844 123.0625 127.210938 123 C 126.832031 122.933594 126.460938 122.832031 126.101562 122.695312 C 125.742188 122.554688 125.398438 122.382812 125.074219 122.171875 C 124.75 121.964844 124.449219 121.722656 124.171875 121.453125 Z M 11.507812 150.890625 C 11.003906 151.871094 10.285156 152.652344 9.34375 153.234375 L 46.128906 228.859375 C 46.492188 228.726562 46.859375 228.632812 47.238281 228.574219 C 47.882812 228.46875 48.527344 228.46875 49.171875 228.574219 L 63.746094 176.714844 C 62.800781 176.347656 62.007812 175.769531 61.367188 174.980469 C 60.730469 174.195312 60.328125 173.296875 60.167969 172.296875 C 60.035156 171.46875 60.082031 170.652344 60.3125 169.847656 Z M 11.507812 150.890625 " fill-opacity="1" fill-rule="nonzero"/></g><g clip-path="url(#689486f9b6)"><path fill="#64c0e8" d="M 616.195312 562.796875 C 616.195312 562.410156 616.230469 562.03125 616.304688 561.652344 L 535.828125 537.277344 C 535.664062 537.679688 535.457031 538.0625 535.203125 538.417969 C 534.949219 538.773438 534.660156 539.097656 534.332031 539.386719 C 534.003906 539.675781 533.648438 539.921875 533.265625 540.128906 C 532.878906 540.335938 532.476562 540.496094 532.054688 540.609375 C 531.632812 540.726562 531.207031 540.789062 530.769531 540.804688 C 530.332031 540.820312 529.898438 540.785156 529.472656 540.699219 C 529.042969 540.613281 528.628906 540.480469 528.234375 540.300781 C 527.835938 540.117188 527.464844 539.894531 527.117188 539.628906 C 526.773438 539.363281 526.460938 539.058594 526.183594 538.722656 C 525.910156 538.382812 525.675781 538.015625 525.484375 537.625 C 525.292969 537.230469 525.148438 536.824219 525.050781 536.398438 C 524.953125 535.972656 524.90625 535.539062 524.910156 535.105469 C 524.910156 534.667969 524.964844 534.234375 525.066406 533.8125 C 525.167969 533.386719 525.316406 532.980469 525.515625 532.589844 C 525.710938 532.199219 525.949219 531.835938 526.230469 531.5 C 526.507812 531.167969 526.824219 530.867188 527.171875 530.605469 L 491.871094 473.378906 C 491.484375 473.570312 491.078125 473.71875 490.65625 473.816406 C 490.234375 473.917969 489.808594 473.964844 489.375 473.96875 C 488.941406 473.96875 488.511719 473.921875 488.089844 473.828125 C 487.667969 473.730469 487.261719 473.589844 486.871094 473.398438 C 486.480469 473.210938 486.117188 472.980469 485.78125 472.707031 C 485.441406 472.4375 485.140625 472.128906 484.875 471.789062 C 484.605469 471.445312 484.382812 471.082031 484.199219 470.6875 C 484.015625 470.296875 483.878906 469.886719 483.789062 469.464844 L 397.769531 479.496094 L 397.769531 479.65625 C 397.773438 480.011719 397.742188 480.363281 397.675781 480.710938 C 397.613281 481.058594 397.519531 481.398438 397.390625 481.726562 C 397.261719 482.058594 397.105469 482.375 396.921875 482.675781 C 396.734375 482.976562 396.519531 483.257812 396.28125 483.515625 C 396.042969 483.777344 395.78125 484.015625 395.5 484.226562 C 395.214844 484.441406 394.914062 484.625 394.597656 484.78125 C 394.277344 484.933594 393.949219 485.058594 393.609375 485.15625 C 393.265625 485.25 392.917969 485.308594 392.566406 485.339844 C 392.214844 485.367188 391.863281 485.363281 391.511719 485.328125 C 391.15625 485.289062 390.8125 485.222656 390.472656 485.121094 C 390.132812 485.019531 389.808594 484.886719 389.492188 484.722656 C 389.179688 484.558594 388.882812 484.371094 388.605469 484.152344 C 388.324219 483.933594 388.070312 483.691406 387.835938 483.425781 C 387.601562 483.15625 387.394531 482.871094 387.214844 482.566406 C 387.035156 482.261719 386.886719 481.941406 386.765625 481.609375 C 386.648438 481.277344 386.558594 480.9375 386.503906 480.585938 L 324.214844 485.398438 C 324.210938 485.816406 324.160156 486.230469 324.0625 486.636719 C 323.964844 487.046875 323.824219 487.4375 323.640625 487.8125 C 323.457031 488.191406 323.234375 488.542969 322.96875 488.871094 C 322.707031 489.199219 322.414062 489.492188 322.085938 489.753906 C 321.757812 490.015625 321.40625 490.238281 321.027344 490.421875 C 320.652344 490.605469 320.257812 490.746094 319.851562 490.839844 C 319.445312 490.9375 319.03125 490.988281 318.609375 490.992188 C 318.191406 490.996094 317.777344 490.957031 317.367188 490.871094 C 316.957031 490.78125 316.5625 490.652344 316.179688 490.476562 C 315.800781 490.300781 315.441406 490.085938 315.109375 489.832031 C 314.773438 489.578125 314.472656 489.289062 314.203125 488.96875 C 313.933594 488.648438 313.703125 488.300781 313.511719 487.929688 C 313.320312 487.554688 313.167969 487.167969 313.0625 486.761719 C 312.957031 486.355469 312.894531 485.941406 312.882812 485.523438 C 312.867188 485.105469 312.898438 484.691406 312.976562 484.277344 C 313.054688 483.867188 313.175781 483.46875 313.339844 483.082031 C 313.507812 482.695312 313.710938 482.335938 313.957031 481.996094 C 314.203125 481.65625 314.484375 481.347656 314.800781 481.070312 C 315.113281 480.792969 315.457031 480.554688 315.824219 480.351562 C 316.191406 480.152344 316.578125 479.992188 316.980469 479.875 C 317.382812 479.761719 317.792969 479.691406 318.210938 479.664062 C 318.628906 479.640625 319.046875 479.664062 319.460938 479.730469 C 319.875 479.796875 320.277344 479.910156 320.664062 480.066406 C 321.054688 480.222656 321.421875 480.417969 321.765625 480.65625 L 376.738281 414.722656 C 375.746094 413.734375 375.195312 412.542969 375.09375 411.144531 L 312.824219 411.144531 C 312.792969 411.492188 312.726562 411.832031 312.632812 412.164062 C 312.539062 412.5 312.414062 412.820312 312.257812 413.132812 C 312.105469 413.445312 311.921875 413.738281 311.714844 414.015625 C 311.507812 414.292969 311.273438 414.550781 311.019531 414.785156 C 310.765625 415.019531 310.488281 415.230469 310.195312 415.414062 C 309.902344 415.601562 309.59375 415.757812 309.269531 415.882812 C 308.945312 416.011719 308.613281 416.109375 308.273438 416.175781 C 307.933594 416.242188 307.589844 416.28125 307.242188 416.285156 C 306.894531 416.285156 306.550781 416.257812 306.207031 416.199219 C 305.867188 416.140625 305.53125 416.050781 305.207031 415.929688 C 304.882812 415.808594 304.570312 415.660156 304.273438 415.480469 C 303.972656 415.300781 303.695312 415.097656 303.433594 414.871094 C 303.171875 414.640625 302.933594 414.386719 302.722656 414.117188 C 302.507812 413.84375 302.320312 413.550781 302.15625 413.246094 C 301.996094 412.9375 301.863281 412.617188 301.761719 412.285156 C 301.660156 411.953125 301.589844 411.613281 301.550781 411.269531 C 301.507812 410.925781 301.5 410.578125 301.523438 410.234375 C 301.546875 409.886719 301.601562 409.546875 301.6875 409.207031 C 301.773438 408.871094 301.890625 408.546875 302.035156 408.230469 C 302.183594 407.917969 302.355469 407.617188 302.554688 407.335938 C 302.757812 407.050781 302.984375 406.789062 303.230469 406.546875 C 303.480469 406.304688 303.75 406.085938 304.039062 405.894531 C 304.328125 405.703125 304.632812 405.539062 304.953125 405.402344 C 305.269531 405.265625 305.601562 405.160156 305.9375 405.082031 L 296.03125 327.84375 C 296.03125 327.84375 295.886719 327.84375 295.816406 327.84375 C 295.078125 327.84375 294.367188 327.707031 293.683594 327.429688 C 293 327.148438 292.394531 326.753906 291.863281 326.234375 L 245.152344 366.507812 C 245.386719 366.832031 245.582031 367.179688 245.742188 367.542969 C 245.902344 367.910156 246.019531 368.289062 246.101562 368.679688 C 246.179688 369.070312 246.21875 369.464844 246.214844 369.867188 C 246.210938 370.265625 246.167969 370.660156 246.078125 371.050781 C 245.992188 371.4375 245.867188 371.816406 245.703125 372.179688 C 245.535156 372.542969 245.335938 372.882812 245.097656 373.203125 C 244.859375 373.523438 244.589844 373.816406 244.289062 374.082031 C 243.992188 374.34375 243.667969 374.574219 243.320312 374.769531 C 242.972656 374.96875 242.609375 375.125 242.226562 375.246094 C 241.847656 375.363281 241.457031 375.441406 241.058594 375.480469 C 240.664062 375.515625 240.265625 375.511719 239.867188 375.464844 C 239.472656 375.417969 239.085938 375.332031 238.707031 375.203125 C 238.328125 375.078125 237.96875 374.910156 237.625 374.707031 C 237.28125 374.503906 236.964844 374.265625 236.667969 373.996094 C 236.375 373.722656 236.113281 373.425781 235.882812 373.101562 C 235.652344 372.773438 235.460938 372.425781 235.300781 372.0625 C 235.144531 371.695312 235.027344 371.316406 234.949219 370.921875 C 234.871094 370.53125 234.835938 370.136719 234.839844 369.738281 C 234.847656 369.339844 234.894531 368.945312 234.984375 368.554688 C 235.070312 368.164062 235.199219 367.789062 235.367188 367.425781 C 235.535156 367.066406 235.738281 366.726562 235.976562 366.40625 C 236.21875 366.085938 236.488281 365.796875 236.789062 365.53125 C 237.089844 365.269531 237.414062 365.042969 237.761719 364.847656 C 238.113281 364.652344 238.476562 364.496094 238.859375 364.378906 L 217.507812 262.910156 C 217.273438 262.910156 217.058594 262.910156 216.84375 262.910156 C 216.324219 262.914062 215.816406 262.847656 215.316406 262.710938 C 214.816406 262.574219 214.34375 262.371094 213.902344 262.105469 C 213.457031 261.839844 213.054688 261.515625 212.699219 261.140625 C 212.34375 260.765625 212.042969 260.347656 211.800781 259.890625 L 174.621094 275.144531 C 174.789062 275.691406 174.871094 276.25 174.871094 276.824219 C 174.871094 277.285156 174.8125 277.738281 174.699219 278.183594 C 174.585938 278.632812 174.421875 279.058594 174.203125 279.464844 C 173.988281 279.871094 173.726562 280.246094 173.417969 280.589844 C 173.109375 280.929688 172.765625 281.230469 172.382812 281.492188 C 172.003906 281.75 171.597656 281.960938 171.164062 282.121094 C 170.734375 282.28125 170.289062 282.386719 169.832031 282.4375 C 169.375 282.492188 168.917969 282.488281 168.460938 282.429688 C 168.003906 282.371094 167.558594 282.257812 167.128906 282.089844 C 166.699219 281.925781 166.296875 281.710938 165.921875 281.445312 C 165.542969 281.179688 165.203125 280.875 164.898438 280.527344 C 164.597656 280.179688 164.339844 279.800781 164.128906 279.394531 C 163.917969 278.984375 163.761719 278.554688 163.652344 278.105469 C 163.546875 277.660156 163.496094 277.203125 163.5 276.742188 C 163.503906 276.28125 163.5625 275.828125 163.675781 275.382812 C 163.789062 274.9375 163.953125 274.511719 164.171875 274.105469 C 164.390625 273.699219 164.652344 273.324219 164.960938 272.980469 C 165.269531 272.640625 165.613281 272.339844 165.996094 272.082031 C 166.375 271.824219 166.785156 271.613281 167.214844 271.453125 C 167.648438 271.292969 168.09375 271.1875 168.550781 271.136719 C 169.007812 271.085938 169.464844 271.089844 169.921875 271.148438 C 170.378906 271.210938 170.820312 271.324219 171.25 271.492188 C 171.679688 271.65625 172.082031 271.875 172.460938 272.140625 C 172.835938 272.40625 173.175781 272.710938 173.476562 273.058594 C 173.78125 273.40625 174.035156 273.785156 174.246094 274.195312 L 211.425781 258.921875 C 211.257812 258.382812 211.175781 257.828125 211.175781 257.261719 C 211.179688 256.609375 211.289062 255.980469 211.496094 255.363281 L 120.597656 214.125 C 120.265625 214.703125 119.847656 215.210938 119.339844 215.640625 C 118.828125 216.074219 118.261719 216.402344 117.636719 216.636719 C 117.011719 216.867188 116.363281 216.984375 115.699219 216.988281 C 115.03125 216.988281 114.382812 216.878906 113.753906 216.652344 C 113.128906 216.425781 112.558594 216.101562 112.046875 215.675781 C 111.53125 215.25 111.109375 214.746094 110.773438 214.171875 C 110.4375 213.59375 110.210938 212.976562 110.09375 212.320312 C 109.972656 211.664062 109.972656 211.007812 110.085938 210.351562 C 110.199219 209.695312 110.421875 209.074219 110.753906 208.496094 C 111.085938 207.917969 111.507812 207.414062 112.015625 206.984375 C 112.527344 206.554688 113.09375 206.222656 113.722656 205.996094 C 114.347656 205.765625 114.992188 205.648438 115.660156 205.648438 C 115.769531 205.648438 115.855469 205.648438 115.945312 205.648438 L 125.710938 136.976562 C 125.175781 136.851562 124.671875 136.652344 124.191406 136.378906 C 123.714844 136.109375 123.289062 135.773438 122.90625 135.375 C 122.527344 134.976562 122.214844 134.535156 121.960938 134.046875 C 121.710938 133.558594 121.535156 133.042969 121.433594 132.503906 C 121.332031 131.964844 121.308594 131.421875 121.367188 130.875 C 121.421875 130.328125 121.554688 129.800781 121.765625 129.292969 C 121.976562 128.785156 122.253906 128.316406 122.597656 127.890625 C 122.945312 127.464844 123.34375 127.09375 123.796875 126.785156 L 87.28125 61.832031 C 86.933594 61.984375 86.578125 62.101562 86.210938 62.1875 C 85.84375 62.269531 85.46875 62.3125 85.09375 62.320312 C 84.714844 62.328125 84.339844 62.300781 83.96875 62.234375 C 83.597656 62.167969 83.238281 62.066406 82.886719 61.925781 C 82.535156 61.789062 82.203125 61.617188 81.886719 61.410156 C 81.570312 61.203125 81.277344 60.96875 81.007812 60.707031 C 80.738281 60.441406 80.496094 60.15625 80.285156 59.84375 C 80.070312 59.53125 79.890625 59.199219 79.746094 58.851562 C 79.597656 58.503906 79.488281 58.144531 79.414062 57.777344 C 79.339844 57.40625 79.300781 57.035156 79.300781 56.65625 C 79.300781 56.277344 79.339844 55.90625 79.414062 55.535156 C 79.488281 55.164062 79.597656 54.804688 79.742188 54.457031 C 79.890625 54.109375 80.070312 53.78125 80.28125 53.46875 C 80.492188 53.15625 80.734375 52.867188 81.003906 52.605469 C 81.273438 52.339844 81.566406 52.105469 81.882812 51.898438 C 82.199219 51.695312 82.53125 51.523438 82.882812 51.382812 C 83.234375 51.246094 83.59375 51.140625 83.964844 51.074219 C 84.335938 51.007812 84.710938 50.976562 85.089844 50.984375 C 85.464844 50.992188 85.839844 51.039062 86.207031 51.121094 C 86.574219 51.203125 86.929688 51.320312 87.277344 51.476562 C 87.621094 51.628906 87.945312 51.8125 88.253906 52.03125 C 88.5625 52.25 88.84375 52.5 89.101562 52.773438 C 89.363281 53.046875 89.589844 53.347656 89.789062 53.667969 C 89.988281 53.988281 90.152344 54.324219 90.285156 54.679688 L 157.9375 36.582031 C 157.910156 36.257812 157.910156 35.9375 157.9375 35.613281 C 157.9375 35.238281 157.972656 34.867188 158.046875 34.5 C 158.121094 34.132812 158.230469 33.777344 158.375 33.429688 C 158.515625 33.082031 158.695312 32.753906 158.902344 32.445312 C 159.113281 32.132812 159.351562 31.84375 159.617188 31.582031 C 159.882812 31.316406 160.171875 31.082031 160.484375 30.875 C 160.796875 30.667969 161.125 30.492188 161.472656 30.351562 C 161.820312 30.210938 162.175781 30.101562 162.546875 30.03125 C 162.914062 29.960938 163.285156 29.925781 163.660156 29.929688 C 164.035156 29.929688 164.40625 29.96875 164.773438 30.046875 C 165.140625 30.121094 165.496094 30.234375 165.839844 30.378906 C 166.1875 30.523438 166.515625 30.703125 166.824219 30.914062 C 167.132812 31.125 167.421875 31.363281 167.683594 31.632812 C 167.945312 31.898438 168.179688 32.191406 168.382812 32.503906 C 168.589844 32.820312 168.761719 33.148438 168.902344 33.496094 C 169.042969 33.84375 169.144531 34.203125 169.214844 34.574219 C 169.28125 34.941406 169.316406 35.3125 169.308594 35.6875 C 169.304688 36.0625 169.265625 36.433594 169.1875 36.800781 C 169.109375 37.167969 168.996094 37.523438 168.847656 37.867188 C 168.699219 38.210938 168.515625 38.535156 168.304688 38.84375 C 168.089844 39.152344 167.851562 39.4375 167.582031 39.699219 C 167.3125 39.960938 167.019531 40.191406 166.703125 40.394531 C 166.390625 40.597656 166.058594 40.769531 165.707031 40.90625 C 165.359375 41.042969 165 41.144531 164.632812 41.210938 C 164.261719 41.277344 163.890625 41.308594 163.515625 41.300781 C 163 41.292969 162.492188 41.222656 161.996094 41.085938 L 129.539062 126.371094 C 130.015625 126.605469 130.453125 126.898438 130.847656 127.253906 C 131.242188 127.609375 131.578125 128.011719 131.859375 128.464844 C 132.140625 128.914062 132.355469 129.394531 132.503906 129.90625 C 132.648438 130.417969 132.722656 130.9375 132.722656 131.46875 C 132.722656 132.007812 132.652344 132.539062 132.507812 133.058594 L 194.667969 157.453125 C 194.933594 156.902344 195.273438 156.410156 195.695312 155.96875 C 196.117188 155.53125 196.597656 155.167969 197.136719 154.882812 C 197.675781 154.597656 198.246094 154.40625 198.847656 154.304688 C 199.449219 154.207031 200.050781 154.203125 200.652344 154.296875 C 201.253906 154.390625 201.828125 154.574219 202.367188 154.851562 C 202.910156 155.128906 203.394531 155.484375 203.824219 155.921875 C 204.25 156.355469 204.601562 156.84375 204.867188 157.390625 C 205.136719 157.9375 205.316406 158.511719 205.398438 159.117188 L 284.550781 154.144531 C 284.5625 153.785156 284.605469 153.433594 284.683594 153.082031 C 284.761719 152.730469 284.871094 152.390625 285.011719 152.0625 C 285.152344 151.730469 285.324219 151.417969 285.527344 151.121094 C 285.730469 150.824219 285.957031 150.550781 286.210938 150.296875 C 286.464844 150.042969 286.742188 149.816406 287.039062 149.613281 C 287.335938 149.414062 287.648438 149.242188 287.976562 149.097656 C 288.308594 148.957031 288.648438 148.847656 288.996094 148.769531 C 289.347656 148.695312 289.703125 148.652344 290.0625 148.640625 C 290.421875 148.628906 290.777344 148.65625 291.132812 148.710938 C 291.484375 148.769531 291.832031 148.859375 292.167969 148.984375 C 292.503906 149.109375 292.828125 149.261719 293.132812 149.445312 C 293.441406 149.632812 293.730469 149.84375 293.996094 150.082031 C 294.265625 150.320312 294.507812 150.585938 294.726562 150.871094 C 294.941406 151.15625 295.132812 151.457031 295.292969 151.78125 C 295.453125 152.101562 295.578125 152.433594 295.675781 152.78125 C 295.773438 153.125 295.835938 153.476562 295.867188 153.835938 C 295.894531 154.191406 295.890625 154.550781 295.855469 154.90625 C 295.816406 155.261719 295.746094 155.613281 295.640625 155.957031 C 295.535156 156.300781 295.402344 156.628906 295.234375 156.949219 C 295.066406 157.265625 294.871094 157.5625 294.648438 157.84375 C 294.421875 158.125 294.175781 158.382812 293.902344 158.613281 C 293.628906 158.847656 293.335938 159.054688 293.027344 159.230469 C 292.714844 159.410156 292.386719 159.554688 292.046875 159.671875 C 291.710938 159.789062 291.363281 159.871094 291.007812 159.921875 L 296.121094 265.433594 C 296.480469 265.453125 296.835938 265.503906 297.183594 265.589844 C 297.53125 265.679688 297.871094 265.796875 298.195312 265.949219 C 298.523438 266.097656 298.832031 266.28125 299.125 266.488281 C 299.417969 266.699219 299.6875 266.933594 299.933594 267.195312 C 300.183594 267.457031 300.402344 267.742188 300.59375 268.042969 C 300.789062 268.347656 300.953125 268.664062 301.085938 269 C 301.21875 269.335938 301.316406 269.679688 301.386719 270.03125 C 301.453125 270.386719 301.488281 270.742188 301.484375 271.101562 C 301.480469 271.925781 301.308594 272.710938 300.96875 273.460938 L 370.371094 313.179688 C 370.507812 312.988281 370.652344 312.808594 370.808594 312.632812 C 370.964844 312.460938 371.128906 312.296875 371.308594 312.144531 C 371.484375 311.992188 371.667969 311.851562 371.863281 311.71875 C 372.058594 311.589844 372.257812 311.472656 372.464844 311.367188 C 372.675781 311.261719 372.890625 311.171875 373.109375 311.09375 C 373.328125 311.011719 373.554688 310.949219 373.78125 310.898438 C 374.007812 310.847656 374.238281 310.808594 374.472656 310.789062 C 374.703125 310.765625 374.9375 310.757812 375.171875 310.761719 C 375.402344 310.769531 375.636719 310.789062 375.867188 310.824219 C 376.097656 310.859375 376.324219 310.910156 376.550781 310.972656 C 376.773438 311.035156 376.996094 311.113281 377.210938 311.203125 C 377.425781 311.292969 377.632812 311.394531 377.835938 311.511719 C 378.039062 311.628906 378.234375 311.757812 378.421875 311.898438 C 378.609375 312.035156 378.785156 312.1875 378.953125 312.351562 C 379.121094 312.511719 379.277344 312.683594 379.425781 312.867188 C 379.574219 313.046875 379.707031 313.238281 379.832031 313.433594 C 379.953125 313.632812 380.066406 313.839844 380.164062 314.050781 C 380.261719 314.261719 380.347656 314.480469 380.417969 314.703125 C 380.488281 314.925781 380.546875 315.152344 380.589844 315.378906 C 380.632812 315.609375 380.660156 315.839844 380.675781 316.074219 C 380.691406 316.308594 380.691406 316.539062 380.675781 316.773438 C 380.664062 317.007812 380.632812 317.238281 380.589844 317.46875 C 380.546875 317.695312 380.492188 317.921875 380.421875 318.144531 C 380.351562 318.367188 380.265625 318.585938 380.167969 318.796875 C 380.070312 319.007812 379.960938 319.214844 379.839844 319.414062 C 379.714844 319.613281 379.582031 319.800781 379.433594 319.984375 C 379.289062 320.164062 379.132812 320.339844 378.964844 320.5 C 378.796875 320.664062 378.617188 320.816406 378.433594 320.957031 C 378.246094 321.097656 378.050781 321.226562 377.847656 321.339844 C 377.648438 321.457031 377.4375 321.5625 377.222656 321.652344 C 377.007812 321.742188 376.789062 321.820312 376.5625 321.882812 C 376.339844 321.949219 376.109375 321.996094 375.878906 322.035156 L 380.871094 404.90625 C 381.234375 404.914062 381.597656 404.960938 381.953125 405.039062 C 382.308594 405.121094 382.65625 405.234375 382.988281 405.382812 C 383.324219 405.527344 383.640625 405.707031 383.941406 405.914062 C 384.242188 406.125 384.519531 406.359375 384.773438 406.621094 C 385.03125 406.882812 385.257812 407.167969 385.457031 407.472656 C 385.65625 407.777344 385.824219 408.101562 385.960938 408.441406 C 386.101562 408.777344 386.203125 409.128906 386.273438 409.488281 C 386.34375 409.84375 386.378906 410.207031 386.378906 410.574219 C 386.382812 411.335938 386.242188 412.070312 385.949219 412.773438 L 484.558594 465.0625 C 484.796875 464.703125 485.074219 464.375 485.390625 464.078125 C 485.703125 463.78125 486.046875 463.523438 486.421875 463.304688 C 486.796875 463.089844 487.1875 462.914062 487.601562 462.789062 C 488.015625 462.660156 488.4375 462.582031 488.871094 462.550781 C 489.300781 462.519531 489.730469 462.535156 490.160156 462.605469 C 490.585938 462.671875 491 462.785156 491.402344 462.949219 C 491.800781 463.109375 492.179688 463.316406 492.535156 463.5625 C 492.886719 463.8125 493.210938 464.097656 493.5 464.421875 L 584.917969 397.589844 C 584.660156 397.160156 584.464844 396.703125 584.328125 396.21875 C 584.191406 395.734375 584.121094 395.242188 584.113281 394.742188 C 584.109375 394.238281 584.167969 393.746094 584.292969 393.261719 C 584.417969 392.773438 584.605469 392.3125 584.851562 391.875 C 585.097656 391.4375 585.398438 391.042969 585.75 390.683594 C 586.101562 390.328125 586.496094 390.019531 586.925781 389.769531 C 587.359375 389.515625 587.820312 389.320312 588.304688 389.1875 C 588.789062 389.058594 589.28125 388.988281 589.78125 388.988281 C 590.339844 388.992188 590.890625 389.070312 591.425781 389.222656 L 624.90625 306.492188 C 624.339844 306.199219 623.839844 305.820312 623.402344 305.359375 C 622.96875 304.898438 622.617188 304.378906 622.355469 303.796875 C 622.09375 303.21875 621.929688 302.613281 621.871094 301.980469 C 621.8125 301.347656 621.859375 300.722656 622.007812 300.105469 C 622.15625 299.488281 622.40625 298.910156 622.75 298.375 C 623.09375 297.839844 623.511719 297.378906 624.011719 296.984375 C 624.511719 296.589844 625.0625 296.289062 625.664062 296.078125 C 626.261719 295.871094 626.878906 295.765625 627.515625 295.761719 C 627.550781 295.753906 627.585938 295.753906 627.625 295.761719 L 637.726562 205.523438 C 637.492188 205.476562 637.257812 205.414062 637.027344 205.339844 C 636.800781 205.261719 636.578125 205.171875 636.359375 205.070312 C 636.140625 204.964844 635.933594 204.847656 635.730469 204.714844 C 635.527344 204.585938 635.332031 204.441406 635.148438 204.285156 C 634.964844 204.128906 634.792969 203.964844 634.628906 203.785156 C 634.464844 203.609375 634.3125 203.421875 634.175781 203.222656 C 634.035156 203.027344 633.90625 202.820312 633.792969 202.609375 C 633.679688 202.394531 633.582031 202.175781 633.496094 201.949219 C 633.410156 201.726562 633.339844 201.496094 633.28125 201.261719 C 633.226562 201.027344 633.183594 200.789062 633.160156 200.550781 C 633.132812 200.308594 633.121094 200.070312 633.125 199.828125 C 633.128906 199.585938 633.148438 199.347656 633.183594 199.109375 C 633.21875 198.871094 633.269531 198.632812 633.332031 198.402344 C 633.398438 198.167969 633.476562 197.941406 633.570312 197.71875 C 633.664062 197.496094 633.769531 197.28125 633.890625 197.070312 C 634.011719 196.863281 634.144531 196.664062 634.289062 196.46875 C 634.4375 196.277344 634.59375 196.097656 634.761719 195.925781 C 634.933594 195.753906 635.113281 195.59375 635.300781 195.441406 C 635.492188 195.292969 635.6875 195.15625 635.894531 195.035156 C 636.101562 194.910156 636.316406 194.796875 636.539062 194.703125 C 636.757812 194.605469 636.984375 194.523438 637.214844 194.453125 C 637.449219 194.386719 637.683594 194.332031 637.921875 194.292969 C 638.160156 194.257812 638.398438 194.234375 638.640625 194.226562 C 638.882812 194.214844 639.121094 194.222656 639.363281 194.246094 C 639.601562 194.269531 639.839844 194.304688 640.074219 194.359375 C 640.3125 194.410156 640.542969 194.480469 640.769531 194.5625 C 640.996094 194.644531 641.214844 194.738281 641.429688 194.847656 C 641.644531 194.960938 641.851562 195.082031 642.050781 195.21875 C 642.25 195.355469 642.441406 195.503906 642.621094 195.664062 C 642.800781 195.824219 642.96875 195.996094 643.128906 196.175781 C 643.289062 196.359375 643.433594 196.550781 643.566406 196.75 C 643.703125 196.949219 643.824219 197.160156 643.929688 197.375 C 644.039062 197.589844 644.132812 197.8125 644.214844 198.039062 C 644.292969 198.265625 644.359375 198.5 644.410156 198.734375 C 644.457031 198.972656 644.496094 199.207031 644.515625 199.449219 C 644.535156 199.691406 644.539062 199.929688 644.527344 200.171875 C 644.519531 200.414062 644.492188 200.652344 644.453125 200.890625 C 644.410156 201.128906 644.355469 201.363281 644.285156 201.59375 C 644.214844 201.824219 644.128906 202.046875 644.03125 202.269531 C 643.933594 202.488281 643.820312 202.703125 643.695312 202.90625 C 643.566406 203.113281 643.429688 203.308594 643.277344 203.496094 C 643.125 203.6875 642.964844 203.863281 642.789062 204.03125 C 642.617188 204.199219 642.433594 204.355469 642.242188 204.5 C 642.046875 204.644531 641.84375 204.773438 641.636719 204.894531 C 641.425781 205.011719 641.207031 205.117188 640.984375 205.207031 C 640.761719 205.300781 640.535156 205.375 640.300781 205.4375 C 640.066406 205.5 639.832031 205.546875 639.59375 205.578125 C 639.351562 205.613281 639.113281 205.628906 638.871094 205.632812 L 638.746094 205.632812 L 628.644531 295.871094 C 629.300781 296.003906 629.914062 296.246094 630.488281 296.597656 C 631.058594 296.949219 631.550781 297.386719 631.96875 297.914062 C 632.382812 298.441406 632.695312 299.023438 632.902344 299.664062 C 633.113281 300.300781 633.203125 300.953125 633.179688 301.625 C 633.15625 302.296875 633.019531 302.941406 632.765625 303.5625 C 632.511719 304.183594 632.160156 304.742188 631.710938 305.238281 C 631.257812 305.738281 630.734375 306.140625 630.140625 306.449219 C 629.542969 306.761719 628.914062 306.960938 628.25 307.046875 L 633.472656 432.070312 C 633.84375 432.078125 634.210938 432.125 634.574219 432.207031 C 634.933594 432.289062 635.285156 432.40625 635.625 432.558594 C 635.964844 432.710938 636.289062 432.894531 636.589844 433.109375 C 636.894531 433.324219 637.175781 433.566406 637.429688 433.835938 C 637.6875 434.105469 637.914062 434.394531 638.113281 434.710938 C 638.308594 435.023438 638.476562 435.355469 638.609375 435.703125 C 638.742188 436.050781 638.839844 436.40625 638.90625 436.773438 C 638.96875 437.140625 638.996094 437.507812 638.984375 437.878906 C 638.976562 438.253906 638.929688 438.621094 638.847656 438.984375 C 638.765625 439.34375 638.652344 439.695312 638.5 440.035156 C 638.351562 440.375 638.167969 440.699219 637.953125 441.003906 C 637.738281 441.308594 637.496094 441.585938 637.226562 441.84375 C 636.957031 442.101562 636.667969 442.328125 636.351562 442.527344 C 636.039062 442.726562 635.707031 442.894531 635.363281 443.027344 C 635.015625 443.160156 634.660156 443.261719 634.292969 443.324219 C 633.925781 443.386719 633.558594 443.414062 633.183594 443.40625 C 632.308594 443.40625 631.480469 443.210938 630.699219 442.816406 L 593.699219 503.726562 C 594.261719 504.257812 594.695312 504.878906 595.003906 505.585938 C 595.316406 506.292969 595.476562 507.03125 595.488281 507.804688 C 595.492188 508.722656 595.28125 509.589844 594.863281 510.402344 C 594.441406 511.21875 593.859375 511.890625 593.109375 512.417969 L 619.539062 557.664062 C 619.910156 557.492188 620.292969 557.359375 620.6875 557.269531 C 621.085938 557.179688 621.488281 557.136719 621.894531 557.132812 C 622.300781 557.128906 622.703125 557.167969 623.101562 557.253906 C 623.5 557.335938 623.886719 557.460938 624.257812 557.628906 C 624.628906 557.796875 624.976562 558 625.304688 558.242188 C 625.632812 558.484375 625.929688 558.757812 626.199219 559.0625 C 626.46875 559.371094 626.699219 559.699219 626.898438 560.058594 C 627.09375 560.414062 627.25 560.785156 627.367188 561.175781 C 627.484375 561.566406 627.558594 561.964844 627.589844 562.371094 C 627.621094 562.777344 627.609375 563.179688 627.550781 563.582031 C 627.496094 563.988281 627.398438 564.378906 627.257812 564.761719 C 627.117188 565.144531 626.933594 565.503906 626.714844 565.847656 C 626.496094 566.191406 626.246094 566.507812 625.957031 566.796875 C 625.671875 567.085938 625.355469 567.339844 625.015625 567.5625 C 624.671875 567.78125 624.3125 567.964844 623.929688 568.109375 C 623.550781 568.25 623.15625 568.351562 622.753906 568.410156 C 622.351562 568.46875 621.949219 568.484375 621.542969 568.457031 C 621.136719 568.429688 620.738281 568.355469 620.347656 568.242188 C 619.957031 568.128906 619.582031 567.972656 619.222656 567.777344 C 618.867188 567.585938 618.535156 567.355469 618.226562 567.085938 C 617.917969 566.820312 617.644531 566.523438 617.398438 566.199219 C 617.15625 565.875 616.949219 565.527344 616.78125 565.15625 C 616.609375 564.785156 616.484375 564.402344 616.394531 564.003906 C 616.308594 563.605469 616.265625 563.203125 616.265625 562.796875 Z M 528.011719 530.070312 C 528.8125 529.675781 529.660156 529.480469 530.554688 529.480469 C 531.050781 529.480469 531.539062 529.542969 532.019531 529.671875 C 532.5 529.800781 532.957031 529.992188 533.386719 530.242188 C 533.816406 530.488281 534.207031 530.792969 534.558594 531.144531 C 534.90625 531.496094 535.207031 531.890625 535.453125 532.324219 L 584.433594 509.71875 C 584.21875 509.105469 584.109375 508.472656 584.113281 507.824219 C 584.109375 507.28125 584.183594 506.75 584.347656 506.230469 L 494.355469 470.769531 C 493.957031 471.5625 493.402344 472.230469 492.695312 472.769531 Z M 322.535156 481.25 C 323.390625 482.097656 323.917969 483.117188 324.125 484.304688 L 386.414062 479.496094 C 386.425781 478.878906 386.539062 478.28125 386.746094 477.699219 C 386.953125 477.117188 387.25 476.585938 387.632812 476.101562 C 388.015625 475.617188 388.464844 475.207031 388.980469 474.871094 C 389.5 474.53125 390.054688 474.285156 390.652344 474.128906 L 381.136719 416.3125 C 381 416.324219 380.863281 416.324219 380.726562 416.3125 C 379.546875 416.316406 378.472656 415.976562 377.507812 415.292969 Z M 369.460938 317.402344 L 301.503906 322.265625 C 301.480469 323.628906 301.015625 324.824219 300.109375 325.84375 L 377.203125 406.15625 C 377.992188 405.523438 378.886719 405.136719 379.886719 404.992188 L 374.898438 322.121094 C 374.242188 322.105469 373.605469 321.976562 372.996094 321.738281 C 372.382812 321.5 371.828125 321.167969 371.332031 320.734375 C 370.835938 320.304688 370.429688 319.804688 370.105469 319.230469 C 369.785156 318.660156 369.570312 318.050781 369.460938 317.402344 Z M 295.316406 276.804688 C 294.964844 276.773438 294.621094 276.710938 294.285156 276.613281 C 293.949219 276.519531 293.621094 276.394531 293.308594 276.238281 C 292.992188 276.082031 292.695312 275.898438 292.414062 275.6875 C 292.132812 275.476562 291.875 275.242188 291.636719 274.980469 C 291.402344 274.722656 291.191406 274.445312 291.003906 274.144531 C 290.820312 273.847656 290.664062 273.535156 290.535156 273.207031 C 290.410156 272.878906 290.3125 272.542969 290.246094 272.199219 C 290.179688 271.855469 290.148438 271.507812 290.148438 271.15625 L 290.148438 270.617188 L 222.296875 258.707031 C 222.128906 259.316406 221.867188 259.882812 221.511719 260.40625 L 291.757812 318.132812 C 292.742188 317.128906 293.933594 316.570312 295.335938 316.453125 Z M 295.03125 265.539062 L 289.898438 160.027344 C 288.953125 159.992188 288.078125 159.730469 287.269531 159.242188 C 275.074219 176.320312 232.671875 235.941406 220.527344 253.023438 C 221.160156 253.558594 221.648438 254.203125 221.996094 254.957031 C 222.34375 255.710938 222.515625 256.503906 222.511719 257.332031 L 222.511719 257.796875 L 290.363281 269.726562 C 290.5 269.183594 290.714844 268.675781 291.003906 268.199219 C 291.292969 267.71875 291.644531 267.296875 292.058594 266.921875 C 292.476562 266.550781 292.9375 266.246094 293.441406 266.011719 C 293.949219 265.773438 294.476562 265.617188 295.03125 265.539062 Z M 201.304688 165.394531 L 218.023438 251.679688 C 218.617188 251.808594 219.171875 252.027344 219.6875 252.34375 C 231.972656 235.085938 274.230469 175.640625 286.429688 158.5625 C 285.382812 157.652344 284.75 156.515625 284.53125 155.144531 L 205.398438 160.101562 C 205.386719 160.703125 205.28125 161.292969 205.082031 161.863281 C 204.882812 162.433594 204.597656 162.960938 204.230469 163.441406 C 203.859375 163.917969 203.425781 164.328125 202.925781 164.667969 C 202.425781 165.007812 201.886719 165.261719 201.304688 165.429688 Z M 306.957031 404.921875 L 307.171875 404.921875 C 307.523438 404.921875 307.871094 404.953125 308.21875 405.019531 C 308.5625 405.082031 308.898438 405.179688 309.226562 405.304688 C 309.554688 405.433594 309.867188 405.589844 310.167969 405.773438 C 310.464844 405.960938 310.742188 406.171875 311.003906 406.40625 C 311.261719 406.644531 311.496094 406.902344 311.707031 407.183594 C 311.917969 407.464844 312.101562 407.761719 312.257812 408.078125 C 312.414062 408.394531 312.539062 408.71875 312.636719 409.058594 C 312.730469 409.398438 312.792969 409.742188 312.824219 410.089844 L 375.074219 410.089844 C 375.179688 408.867188 375.640625 407.792969 376.453125 406.871094 L 299.429688 326.59375 C 298.75 327.152344 297.980469 327.519531 297.121094 327.703125 Z M 239.859375 364.128906 C 240.09375 364.128906 240.308594 364.128906 240.539062 364.128906 C 241.273438 364.132812 241.980469 364.269531 242.660156 364.542969 C 243.34375 364.820312 243.945312 365.210938 244.472656 365.722656 L 291.203125 325.464844 C 290.496094 324.476562 290.144531 323.375 290.148438 322.160156 C 290.144531 320.996094 290.472656 319.933594 291.132812 318.976562 L 220.886719 261.246094 C 220.214844 261.933594 219.421875 262.414062 218.507812 262.695312 Z M 211.910156 254.523438 C 212.15625 254.085938 212.453125 253.6875 212.804688 253.332031 C 213.160156 252.972656 213.550781 252.667969 213.984375 252.414062 C 214.417969 252.160156 214.878906 251.96875 215.363281 251.839844 C 215.847656 251.707031 216.34375 251.644531 216.84375 251.644531 C 216.84375 251.644531 216.84375 251.644531 216.953125 251.644531 L 200.300781 165.660156 C 200.113281 165.679688 199.921875 165.679688 199.730469 165.660156 C 198.828125 165.652344 197.976562 165.445312 197.171875 165.03125 C 196.367188 164.617188 195.703125 164.046875 195.167969 163.320312 L 120.773438 208.761719 C 121.167969 209.550781 121.363281 210.382812 121.367188 211.265625 C 121.351562 211.875 121.242188 212.472656 121.042969 213.050781 Z M 161.03125 40.710938 C 160.363281 40.394531 159.78125 39.964844 159.28125 39.421875 C 158.78125 38.875 158.40625 38.257812 158.152344 37.5625 L 90.535156 55.679688 C 90.5625 56 90.5625 56.324219 90.535156 56.644531 C 90.558594 57.582031 90.359375 58.46875 89.941406 59.308594 C 89.523438 60.144531 88.933594 60.839844 88.175781 61.382812 L 124.710938 126.300781 C 125.445312 125.953125 126.222656 125.777344 127.035156 125.765625 C 127.558594 125.761719 128.070312 125.835938 128.574219 125.980469 Z M 132.113281 134.007812 C 131.878906 134.480469 131.582031 134.910156 131.226562 135.300781 C 130.871094 135.691406 130.46875 136.023438 130.019531 136.304688 C 129.570312 136.582031 129.09375 136.792969 128.585938 136.9375 C 128.078125 137.082031 127.5625 137.15625 127.035156 137.15625 C 127.035156 137.15625 126.835938 137.15625 126.75 137.15625 L 117.019531 205.808594 C 118.367188 206.152344 119.4375 206.890625 120.238281 208.027344 L 194.632812 162.585938 C 194.238281 161.796875 194.042969 160.964844 194.042969 160.082031 C 194.046875 159.539062 194.125 159.011719 194.277344 158.492188 Z M 300.464844 274.390625 C 299.992188 275.082031 299.390625 275.636719 298.667969 276.058594 C 297.945312 276.480469 297.167969 276.730469 296.335938 276.804688 L 296.335938 316.507812 C 296.960938 316.566406 297.5625 316.722656 298.132812 316.980469 C 298.707031 317.238281 299.222656 317.582031 299.683594 318.011719 C 300.140625 318.441406 300.519531 318.929688 300.816406 319.484375 C 301.113281 320.039062 301.3125 320.625 301.414062 321.246094 L 369.371094 316.382812 C 369.382812 315.59375 369.558594 314.84375 369.890625 314.128906 Z M 385.484375 413.683594 C 384.675781 414.90625 383.558594 415.699219 382.140625 416.0625 L 391.671875 473.863281 C 391.796875 473.863281 391.941406 473.863281 392.082031 473.863281 C 392.734375 473.863281 393.371094 473.972656 393.984375 474.191406 C 394.597656 474.410156 395.160156 474.726562 395.667969 475.136719 C 396.171875 475.550781 396.59375 476.035156 396.933594 476.59375 C 397.273438 477.148438 397.511719 477.746094 397.644531 478.386719 L 483.628906 468.371094 L 483.628906 468.230469 C 483.625 467.464844 483.777344 466.730469 484.074219 466.03125 Z M 494.179688 465.242188 C 494.726562 466.144531 495 467.121094 495 468.175781 C 494.996094 468.71875 494.921875 469.246094 494.769531 469.765625 L 584.722656 505.230469 C 585.160156 504.351562 585.78125 503.640625 586.589844 503.085938 C 587.398438 502.53125 588.289062 502.210938 589.265625 502.117188 L 589.265625 400.183594 C 588.542969 400.121094 587.859375 399.925781 587.210938 399.597656 C 586.566406 399.269531 586.003906 398.832031 585.527344 398.289062 Z M 592.375 389.523438 C 592.75 389.71875 593.101562 389.953125 593.425781 390.226562 C 593.75 390.5 594.039062 390.808594 594.296875 391.144531 C 594.550781 391.484375 594.769531 391.847656 594.941406 392.234375 C 595.117188 392.621094 595.25 393.019531 595.335938 393.4375 C 595.417969 393.851562 595.457031 394.269531 595.449219 394.695312 C 595.441406 395.121094 595.386719 395.539062 595.285156 395.949219 C 595.1875 396.359375 595.039062 396.757812 594.851562 397.136719 C 594.660156 397.515625 594.433594 397.871094 594.164062 398.199219 L 629.574219 433.355469 C 630.414062 432.648438 631.378906 432.226562 632.46875 432.085938 L 627.265625 307.066406 C 626.796875 307.050781 626.335938 306.972656 625.890625 306.832031 Z M 629.929688 442.246094 C 629.207031 441.710938 628.640625 441.042969 628.234375 440.238281 C 627.828125 439.4375 627.625 438.585938 627.625 437.683594 C 627.625 436.335938 628.0625 435.140625 628.929688 434.109375 L 593.429688 398.96875 C 592.527344 399.734375 591.484375 400.167969 590.300781 400.273438 L 590.300781 502.207031 C 591.257812 502.292969 592.132812 502.601562 592.929688 503.136719 Z M 592.269531 512.902344 C 591.507812 513.273438 590.703125 513.457031 589.855469 513.457031 C 588.835938 513.453125 587.890625 513.195312 587.011719 512.683594 C 586.132812 512.171875 585.441406 511.476562 584.9375 510.59375 L 535.953125 533.199219 C 536.179688 533.8125 536.292969 534.441406 536.292969 535.09375 C 536.292969 535.484375 536.257812 535.871094 536.1875 536.257812 L 616.660156 560.613281 C 617.078125 559.597656 617.734375 558.769531 618.628906 558.128906 Z M 592.269531 512.902344 " fill-opacity="1" fill-rule="nonzero"/></g></svg>