<svg xmlns="http://www.w3.org/2000/svg" xmlns:xlink="http://www.w3.org/1999/xlink" width="510" zoomAndPan="magnify" viewBox="0 0 382.5 199.499995" height="266" preserveAspectRatio="xMidYMid meet" version="1.0"><defs><clipPath id="bb7352ad51"><path d="M 75.1875 75.585938 L 123 75.585938 L 123 123.527344 L 75.1875 123.527344 Z M 75.1875 75.585938 " clip-rule="nonzero"/></clipPath><clipPath id="3463b98373"><path d="M 140 82 L 307 82 L 307 120.355469 L 140 120.355469 Z M 140 82 " clip-rule="nonzero"/></clipPath></defs><g clip-path="url(#bb7352ad51)"><path fill="#ffffff" d="M 104.707031 98.539062 C 104.707031 97.683594 105.402344 96.988281 106.261719 96.988281 C 107.117188 96.988281 107.8125 97.683594 107.8125 98.539062 C 107.8125 99.398438 107.117188 100.09375 106.261719 100.09375 C 105.402344 100.09375 104.707031 99.398438 104.707031 98.539062 Z M 82.398438 99.585938 C 82.398438 90.417969 89.828125 82.984375 98.988281 82.984375 C 108.152344 82.984375 115.578125 90.417969 115.578125 99.585938 C 115.578125 108.753906 108.152344 116.183594 98.988281 116.183594 C 89.828125 116.183594 82.398438 108.753906 82.398438 99.585938 Z M 75.1875 123.402344 L 98.988281 123.402344 C 112.078125 123.402344 122.789062 112.683594 122.789062 99.585938 C 122.789062 86.484375 112.078125 75.769531 98.988281 75.769531 L 75.1875 75.769531 Z M 87.34375 99.585938 C 87.34375 106.019531 92.558594 111.238281 98.988281 111.238281 C 105.421875 111.238281 110.636719 106.019531 110.636719 99.585938 C 110.636719 97.519531 110.097656 95.578125 109.152344 93.894531 C 108.394531 95.265625 106.9375 96.191406 105.261719 96.191406 C 102.808594 96.191406 100.816406 94.199219 100.816406 91.742188 C 100.816406 90.417969 101.398438 89.230469 102.316406 88.414062 C 101.261719 88.101562 100.144531 87.929688 98.988281 87.929688 C 92.558594 87.929688 87.34375 93.148438 87.34375 99.585938 " fill-opacity="1" fill-rule="evenodd"/></g><g clip-path="url(#3463b98373)"><path fill="#ffffff" d="M 150.824219 94.570312 C 154.367188 94.570312 157.292969 97.257812 157.292969 101.1875 C 157.292969 105.199219 154.367188 107.847656 150.824219 107.847656 C 147.242188 107.847656 144.398438 105.28125 144.398438 101.1875 C 144.398438 97.007812 147.242188 94.570312 150.824219 94.570312 Z M 157.582031 82.492188 L 157.582031 94.195312 C 156.265625 91.796875 152.925781 90.554688 150.453125 90.554688 C 144.5625 90.554688 140.152344 94.238281 140.152344 101.1875 C 140.152344 107.929688 144.644531 111.816406 150.535156 111.816406 C 153.257812 111.816406 155.976562 110.78125 157.582031 108.175781 L 157.832031 111.402344 L 161.828125 111.402344 L 161.828125 82.492188 Z M 187.25 102.800781 C 188.035156 94.484375 183.582031 90.472656 177.03125 90.472656 C 170.6875 90.472656 166.359375 94.898438 166.359375 101.105469 C 166.359375 107.640625 170.644531 111.898438 177.320312 111.898438 C 180.453125 111.898438 183.953125 110.742188 186.054688 108.425781 L 183.292969 105.738281 C 182.058594 107.144531 179.460938 107.929688 177.402344 107.929688 C 173.695312 107.929688 171.140625 105.902344 170.769531 102.800781 Z M 170.851562 99.203125 C 171.511719 95.976562 174.066406 94.277344 177.15625 94.277344 C 180.574219 94.277344 182.925781 95.976562 183.171875 99.203125 Z M 211.230469 102.800781 C 212.015625 94.484375 207.566406 90.472656 201.011719 90.472656 C 194.667969 90.472656 190.339844 94.898438 190.339844 101.105469 C 190.339844 107.640625 194.625 111.898438 201.300781 111.898438 C 204.433594 111.898438 207.933594 110.742188 210.035156 108.425781 L 207.277344 105.738281 C 206.039062 107.144531 203.445312 107.929688 201.382812 107.929688 C 197.675781 107.929688 195.121094 105.902344 194.75 102.800781 Z M 194.832031 99.203125 C 195.492188 95.976562 198.046875 94.277344 201.136719 94.277344 C 204.558594 94.277344 206.90625 95.976562 207.152344 99.203125 Z M 226.558594 107.722656 C 222.851562 107.722656 220.171875 104.867188 220.171875 101.226562 C 220.171875 97.589844 222.644531 94.734375 226.558594 94.734375 C 230.433594 94.734375 232.988281 97.382812 232.988281 101.226562 C 232.988281 105.03125 230.269531 107.722656 226.558594 107.722656 Z M 219.800781 120.875 L 219.800781 108.425781 C 221.328125 110.949219 224.5 111.859375 226.972656 111.859375 C 233.277344 111.859375 237.230469 107.390625 237.230469 101.226562 C 237.230469 95.066406 233.027344 90.640625 226.972656 90.597656 C 224.253906 90.597656 221.367188 91.839844 219.800781 94.320312 L 219.554688 91.011719 L 215.558594 91.011719 L 215.558594 120.875 Z M 261.417969 102.800781 C 262.203125 94.484375 257.753906 90.472656 251.199219 90.472656 C 244.855469 90.472656 240.527344 94.898438 240.527344 101.105469 C 240.527344 107.640625 244.8125 111.898438 251.488281 111.898438 C 254.621094 111.898438 258.125 110.742188 260.222656 108.425781 L 257.464844 105.738281 C 256.226562 107.144531 253.632812 107.929688 251.570312 107.929688 C 247.863281 107.929688 245.308594 105.902344 244.9375 102.800781 Z M 245.019531 99.203125 C 245.679688 95.976562 248.234375 94.277344 251.324219 94.277344 C 254.746094 94.277344 257.09375 95.976562 257.339844 99.203125 Z M 279.796875 91.011719 L 275.757812 100.730469 L 273.574219 106.441406 L 271.554688 100.648438 L 268.054688 91.011719 L 263.109375 91.011719 L 271.226562 111.113281 L 267.023438 120.875 L 271.722656 120.875 L 284.535156 91.011719 Z M 306.910156 102.800781 C 307.691406 94.484375 303.242188 90.472656 296.691406 90.472656 C 290.34375 90.472656 286.019531 94.898438 286.019531 101.105469 C 286.019531 107.640625 290.304688 111.898438 296.980469 111.898438 C 300.109375 111.898438 303.613281 110.742188 305.714844 108.425781 L 302.953125 105.738281 C 301.71875 107.144531 299.121094 107.929688 297.0625 107.929688 C 293.351562 107.929688 290.796875 105.902344 290.429688 102.800781 Z M 290.511719 99.203125 C 291.167969 95.976562 293.722656 94.277344 296.816406 94.277344 C 300.234375 94.277344 302.582031 95.976562 302.832031 99.203125 L 290.511719 99.203125 " fill-opacity="1" fill-rule="evenodd"/></g></svg>